<?xml version="1.0" standalone="no"?>
<!DOCTYPE svg PUBLIC "-//W3C//DTD SVG 20010904//EN"
 "http://www.w3.org/TR/2001/REC-SVG-20010904/DTD/svg10.dtd">
<svg version="1.0" xmlns="http://www.w3.org/2000/svg"
 width="5079.000000pt" height="4849.000000pt" viewBox="0 0 5079.000000 4849.000000"
 preserveAspectRatio="xMidYMid meet">

<g transform="translate(0.000000,4849.000000) scale(0.100000,-0.100000)"
fill="#000000" stroke="none">
<path d="M27010 47270 c-236 -30 -428 -129 -540 -277 -105 -139 -164 -312
-179 -531 -23 -325 42 -590 202 -829 96 -143 200 -256 419 -455 308 -280 415
-402 483 -550 92 -200 86 -461 -12 -569 -57 -63 -103 -82 -209 -87 -118 -6
-180 13 -239 73 -74 73 -88 127 -93 358 l-4 197 -137 0 c-76 0 -200 -3 -276
-7 l-138 -6 6 -216 c4 -165 10 -236 25 -301 67 -286 193 -456 417 -560 258
-121 637 -115 894 13 199 99 339 295 392 552 49 230 27 557 -47 735 -111 263
-231 417 -557 714 -320 291 -401 384 -476 540 -49 103 -71 200 -71 318 0 145
28 227 99 291 114 103 348 83 431 -38 48 -70 62 -128 67 -280 l6 -140 276 3
276 3 -3 122 c-11 510 -220 821 -609 907 -101 23 -307 33 -403 20z"/>
<path d="M30151 47033 c-120 -830 -510 -3648 -505 -3652 3 -3 135 -24 292 -46
l287 -40 1 25 c2 36 216 1564 220 1569 5 6 654 -86 662 -93 3 -4 -44 -363
-105 -799 -61 -435 -110 -793 -109 -794 8 -9 580 -82 586 -76 4 4 111 753 239
1664 127 910 234 1666 237 1680 3 13 7 47 10 74 3 28 13 106 23 175 10 69 17
126 16 128 -3 4 -586 84 -589 80 -2 -1 -52 -349 -111 -773 -58 -423 -110 -781
-113 -795 l-7 -26 -327 46 c-180 25 -329 48 -332 51 -3 3 44 356 104 785 60
428 110 786 110 795 0 13 -46 22 -267 53 -148 21 -278 40 -289 43 -20 4 -22
-2 -33 -74z"/>
<path d="M23600 46963 c-333 -51 -688 -105 -790 -120 l-185 -29 2 -44 c1 -25
33 -252 72 -505 39 -253 73 -476 75 -495 6 -34 51 -326 61 -385 10 -64 36
-242 40 -275 3 -19 9 -62 14 -95 29 -174 33 -203 37 -235 2 -19 6 -44 9 -56 2
-11 7 -45 11 -75 3 -30 8 -57 10 -60 1 -3 6 -28 9 -55 4 -27 17 -121 30 -209
13 -88 27 -178 30 -200 3 -22 13 -83 22 -135 8 -52 17 -108 19 -125 2 -16 13
-91 25 -165 11 -74 23 -151 25 -170 3 -19 16 -102 29 -185 13 -82 27 -172 31
-200 3 -27 7 -51 9 -53 5 -5 1576 236 1583 242 9 10 -72 526 -83 526 -6 0
-231 -34 -500 -75 -269 -41 -493 -71 -497 -67 -9 9 -172 1071 -165 1078 2 3
182 32 398 65 216 33 395 61 396 63 4 4 -76 518 -81 524 -3 3 -182 -22 -398
-55 -216 -34 -396 -58 -399 -54 -8 8 -162 1021 -156 1027 2 2 228 38 503 80
274 42 500 77 501 78 2 1 -75 503 -79 521 -2 6 -237 -25 -608 -82z"/>
<path d="M19843 46135 c-156 -28 -1038 -298 -1037 -317 1 -10 1057 -3500 1082
-3574 7 -20 14 -19 277 61 149 45 275 84 282 86 7 3 -64 252 -211 737 -123
403 -220 734 -217 736 3 2 65 21 136 42 168 50 262 53 341 12 66 -35 126 -104
169 -193 18 -38 86 -243 150 -455 128 -423 177 -559 229 -636 l35 -52 283 86
c156 47 285 86 286 88 2 1 -15 31 -39 65 -65 96 -99 188 -229 614 -128 420
-140 455 -196 567 -102 204 -248 334 -415 369 -30 6 -60 13 -67 15 -9 3 3 23
35 58 102 111 147 247 147 436 0 154 -14 222 -105 519 -126 410 -234 580 -433
682 -127 66 -322 87 -503 54z m131 -559 c89 -27 152 -96 197 -215 37 -99 147
-474 159 -541 27 -153 -24 -267 -149 -330 -54 -27 -320 -116 -325 -108 -11 14
-332 1095 -327 1100 7 8 239 81 306 97 58 13 86 13 139 -3z"/>
<path d="M35860 43890 c-432 -1020 -729 -1735 -724 -1740 17 -16 459 -199 465
-192 4 4 23 48 44 97 20 50 43 102 51 118 9 15 12 27 8 27 -3 0 -2 6 4 13 6 6
211 487 457 1067 245 580 450 1059 455 1064 5 5 3 -15 -5 -45 -28 -108 -605
-2508 -605 -2516 0 -8 510 -227 515 -221 1 2 316 515 701 1140 384 626 699
1136 701 1135 1 -2 -229 -549 -512 -1217 -283 -668 -512 -1217 -507 -1221 8
-8 505 -220 507 -216 1 1 332 780 734 1731 403 951 729 1732 724 1737 -5 5
-175 79 -378 165 -311 132 -370 154 -379 141 -6 -8 -321 -521 -701 -1140 -379
-618 -691 -1124 -693 -1122 -2 1 140 586 314 1300 174 713 312 1301 307 1305
-6 6 -653 283 -739 317 -6 2 -318 -722 -744 -1727z"/>
<path d="M16161 44759 c-387 -181 -706 -331 -708 -332 -2 -2 5 -21 16 -43 21
-44 60 -128 120 -259 23 -49 60 -125 82 -167 22 -43 37 -78 34 -78 -3 0 12
-35 33 -77 37 -73 61 -124 149 -313 19 -41 53 -110 75 -152 21 -43 36 -78 33
-78 -4 0 12 -34 35 -75 23 -41 39 -75 35 -75 -4 0 12 -34 35 -75 23 -41 39
-75 35 -75 -3 0 12 -35 33 -77 22 -43 56 -113 76 -156 89 -192 111 -237 148
-309 21 -43 36 -78 33 -78 -4 0 12 -34 35 -75 23 -41 39 -75 35 -75 -4 0 12
-34 35 -75 23 -41 39 -75 35 -75 -3 0 11 -35 33 -77 37 -74 71 -146 149 -313
19 -41 53 -110 75 -152 21 -43 36 -78 33 -78 -4 0 12 -34 35 -75 23 -41 39
-75 35 -75 -4 0 12 -34 35 -75 23 -41 39 -75 35 -75 -6 0 31 -77 47 -96 6 -9
82 22 266 108 141 67 260 124 265 127 4 4 -139 320 -318 703 -179 383 -325
700 -325 704 0 5 151 79 336 164 184 85 337 160 340 166 4 9 -199 459 -216
478 -5 4 -159 -63 -344 -149 -184 -87 -341 -155 -348 -152 -15 6 -482 1003
-474 1014 2 5 198 98 435 208 237 110 430 205 431 211 0 11 -208 463 -219 476
-3 4 -323 -141 -710 -323z"/>
<path d="M39850 41982 c-531 -884 -965 -1611 -965 -1616 0 -16 496 -309 505
-300 5 5 437 722 960 1593 523 871 958 1594 966 1606 14 22 10 25 -230 169
-134 80 -250 148 -258 151 -9 3 -329 -522 -978 -1603z"/>
<path d="M43071 42063 c-102 -129 -2271 -2939 -2271 -2943 1 -9 1218 -945
1233 -948 8 -2 53 48 104 115 50 65 123 159 162 209 l71 92 -385 297 c-212
164 -385 298 -385 299 0 1 443 575 985 1276 542 701 985 1277 985 1280 -1 5
-431 338 -456 353 -8 5 -23 -5 -43 -30z"/>
<path d="M10815 41467 c-71 -60 -129 -115 -128 -121 7 -28 1283 -3819 1287
-3824 4 -4 159 121 260 209 8 7 -1273 3849 -1284 3848 -3 0 -63 -51 -135 -112z"/>
<path d="M12069 40698 c-100 -35 -175 -85 -270 -178 -183 -180 -224 -376 -123
-589 19 -41 51 -97 70 -123 76 -106 878 -1050 943 -1110 192 -177 416 -204
629 -76 127 77 234 192 287 309 24 53 30 81 33 162 4 87 1 109 -23 183 -15 47
-47 114 -74 153 -74 113 -914 1104 -984 1162 -34 29 -96 68 -137 88 -69 33
-83 36 -180 39 -89 2 -115 -1 -171 -20z m186 -357 c22 -10 61 -41 87 -67 107
-112 881 -1043 905 -1088 48 -94 20 -187 -75 -247 -62 -39 -122 -39 -183 -1
-58 37 -931 1071 -971 1151 -33 64 -35 91 -7 147 30 63 118 123 179 123 14 0
43 -8 65 -18z"/>
<path d="M9830 40570 c-123 -23 -246 -93 -355 -204 -116 -117 -168 -230 -168
-365 1 -120 48 -246 137 -361 141 -184 905 -1077 954 -1116 247 -195 521 -168
762 77 108 110 168 237 169 359 1 109 -47 244 -126 354 -64 89 -866 1039 -926
1097 -132 126 -300 187 -447 159z m143 -396 c42 -30 885 -1021 938 -1104 41
-63 54 -115 40 -162 -24 -77 -113 -148 -186 -148 -52 0 -104 31 -166 97 -114
125 -875 1036 -893 1071 -44 85 -39 137 21 203 77 85 164 100 246 43z"/>
<path d="M44605 38574 c-687 -668 -1295 -1259 -1349 -1314 l-100 -99 204 -208
c112 -114 207 -208 210 -208 4 0 193 180 419 400 l412 400 181 53 c99 29 182
51 184 49 2 -2 -147 -329 -331 -726 l-335 -723 36 -42 c56 -62 386 -397 389
-394 1 2 210 462 464 1023 l460 1020 878 286 c483 157 883 287 889 290 6 2
-81 99 -195 216 l-206 211 -100 -33 c-55 -18 -278 -94 -495 -168 -217 -75
-554 -190 -749 -256 -195 -67 -355 -120 -357 -119 -1 2 260 257 580 568 l582
565 -204 210 c-113 116 -208 211 -211 212 -3 1 -568 -545 -1256 -1213z"/>
<path d="M30835 39731 c-25 -6 -30 -11 -28 -35 1 -16 14 -42 29 -58 27 -27 27
-28 6 -28 -33 0 -37 -24 -12 -65 17 -27 18 -35 7 -35 -18 0 -19 3 63 -337 77
-315 113 -444 172 -616 22 -65 38 -120 36 -123 -3 -2 -61 17 -129 42 -539 198
-1316 421 -1899 543 -107 23 -206 44 -220 47 -18 4 28 -48 159 -179 l183 -184
249 -62 c555 -136 1197 -339 1746 -551 l82 -31 74 -112 c168 -256 375 -464
692 -694 339 -246 632 -377 961 -428 132 -21 417 -16 528 9 38 9 71 14 73 12
2 -2 -2 -52 -8 -110 l-13 -107 -49 -57 c-28 -31 -57 -62 -66 -68 -29 -21 -226
-82 -235 -74 -5 5 -9 53 -10 107 -1 91 -2 98 -21 98 -34 0 -48 -49 -48 -161
l0 -101 -44 -24 -44 -24 -29 31 c-23 27 -43 69 -75 162 -6 17 -44 15 -51 -3
-8 -21 33 -153 62 -197 l24 -37 -45 -31 c-25 -17 -53 -30 -63 -28 -9 2 -33 30
-53 63 -35 59 -61 77 -81 57 -15 -15 8 -75 48 -128 l34 -44 -27 -11 c-342
-130 -835 -293 -1648 -544 -151 -47 -426 -127 -565 -166 -143 -39 -153 -44
-120 -59 21 -9 45 -5 151 29 69 22 341 103 603 181 453 134 479 140 492 123 7
-10 71 -97 141 -193 287 -392 397 -489 628 -552 109 -29 360 -32 483 -5 218
47 437 146 677 305 183 122 354 259 685 547 280 244 436 371 583 477 90 64
139 94 267 165 25 14 59 33 75 43 70 41 231 91 425 130 249 50 356 84 480 155
210 118 371 297 436 485 57 162 49 341 -21 504 -8 17 -5 18 41 12 85 -13 308
-73 410 -112 421 -157 843 -510 1153 -963 39 -57 69 -106 67 -109 -3 -2 -55 2
-116 8 -153 17 -427 8 -541 -19 -176 -40 -210 -55 -859 -363 -130 -62 -475
-210 -635 -273 -66 -25 -155 -62 -197 -81 -43 -19 -82 -34 -88 -34 -6 0 -43
-15 -83 -34 -39 -19 -143 -66 -230 -105 -617 -278 -1013 -546 -1355 -920 -435
-476 -634 -884 -593 -1217 20 -168 48 -249 201 -588 142 -313 198 -526 207
-781 12 -330 -45 -599 -188 -886 -38 -76 -71 -139 -73 -139 -3 0 -56 13 -118
29 -156 40 -288 55 -422 48 -199 -11 -339 -43 -836 -191 -387 -116 -643 -177
-880 -211 -149 -22 -434 -30 -557 -16 -94 10 -105 9 -133 -8 l-31 -18 28 -7
c15 -3 119 -12 231 -18 375 -22 683 23 1178 172 91 28 167 50 169 50 5 0 -41
-109 -114 -270 -112 -244 -309 -609 -482 -895 l-55 -90 -70 5 c-107 8 -321 3
-399 -9 -562 -88 -758 -135 -1257 -297 -364 -119 -485 -165 -853 -326 -410
-180 -450 -195 -842 -332 -445 -155 -640 -212 -899 -266 l-92 -19 -108 33
c-204 62 -283 58 -407 -23 -40 -26 -102 -80 -137 -119 -103 -115 -215 -184
-390 -240 -91 -29 -249 -63 -355 -76 -27 -4 -66 -9 -85 -11 -117 -16 -325 -37
-450 -46 -179 -12 -1066 -14 -1485 -3 -222 7 -354 6 -465 -3 -85 -7 -225 -16
-311 -21 -108 -7 -165 -15 -186 -26 -29 -15 -34 -14 -80 6 -43 20 -69 22 -254
26 l-206 4 -12 277 c-7 152 -16 377 -22 501 -5 124 -13 304 -18 401 -6 98 -13
282 -17 410 -3 129 -8 237 -10 240 -6 11 -35 632 -29 637 7 7 16 0 242 -198
274 -239 305 -265 316 -265 6 0 177 376 177 390 0 1 -144 129 -320 285 -176
155 -320 286 -320 290 0 4 163 10 363 14 199 3 404 9 456 13 l93 6 35 76 c150
331 206 441 226 441 34 0 253 -142 604 -392 l152 -108 63 0 c132 0 233 42 323
134 l59 61 101 2 c55 1 237 5 405 9 168 4 364 9 435 9 72 1 310 7 530 13 220
6 488 11 597 12 l196 1 70 -143 c316 -646 423 -856 444 -870 13 -8 49 -25 81
-37 56 -23 62 -23 310 -17 614 15 1458 34 1507 34 14 0 214 4 445 10 231 6
427 10 435 10 37 -1 570 15 570 17 0 2 -35 69 -78 151 -42 82 -98 188 -122
236 -33 65 -49 86 -60 82 -8 -3 -58 -17 -110 -32 -85 -22 -114 -25 -270 -25
-130 -1 -194 4 -249 16 -254 59 -490 178 -719 362 -95 77 -264 244 -319 316
-30 40 -41 47 -60 43 -24 -6 -29 2 -15 24 6 8 -16 50 -63 121 -141 214 -239
452 -289 701 -48 240 -55 455 -22 633 l13 68 -206 -6 c-113 -3 -288 -8 -388
-11 l-182 -6 -32 -52 c-18 -28 -47 -73 -64 -101 -18 -27 -101 -161 -185 -296
l-153 -246 -151 -6 c-83 -4 -313 -9 -511 -12 -198 -4 -370 -8 -382 -11 -21 -4
-23 -10 -23 -77 l1 -72 199 -139 c110 -77 199 -141 197 -142 -5 -4 -603 -20
-1072 -28 -467 -9 -724 -16 -772 -22 -40 -6 -45 -4 -79 35 -47 52 -115 95
-190 121 -56 20 -75 21 -354 16 -643 -11 -899 -17 -1215 -27 -181 -6 -364 -9
-405 -8 l-74 4 287 294 287 295 -38 40 c-72 78 -147 161 -176 196 l-28 34 -92
-96 c-50 -52 -167 -175 -261 -273 -93 -98 -193 -201 -220 -229 -28 -28 -99
-104 -159 -169 l-108 -117 -92 1 c-51 1 -107 -3 -126 -9 -19 -6 -89 -12 -154
-14 l-120 -3 -330 350 c-405 430 -593 625 -604 625 -7 0 -251 -176 -315 -226
l-26 -21 257 -254 c287 -284 694 -683 701 -686 2 -1 -6 -26 -18 -55 -61 -151
-44 -321 46 -450 l26 -38 -59 -67 c-33 -38 -135 -147 -229 -243 -93 -96 -201
-209 -239 -250 -39 -41 -118 -125 -178 -186 -59 -61 -108 -114 -108 -118 0 -8
199 -229 210 -234 4 -1 218 213 475 478 258 264 476 480 484 480 9 0 26 3 39
6 l22 6 0 -4391 c0 -2415 3 -4391 8 -4390 4 0 60 62 125 137 l118 137 -3 317
c-2 226 0 320 8 328 8 8 123 13 370 16 197 3 360 6 361 8 2 1 -8 250 -22 552
-83 1771 -122 2629 -120 2632 1 1 16 -20 33 -47 16 -27 45 -57 63 -66 44 -23
152 -31 171 -12 7 8 29 19 48 26 19 6 54 22 78 36 23 13 42 22 42 19 0 -2 -11
-22 -25 -44 -32 -51 -32 -60 7 -60 35 0 101 34 333 175 203 122 570 304 790
391 212 83 626 221 807 269 186 49 429 97 703 139 439 68 645 85 814 67 91
-10 112 -16 175 -50 163 -90 289 -93 408 -9 14 10 68 -4 300 -80 545 -176
1051 -311 1333 -356 72 -12 101 -17 115 -21 8 -2 47 -7 85 -10 39 -4 102 -11
140 -17 39 -5 205 -12 371 -15 l300 -6 -95 -141 c-120 -176 -298 -450 -349
-536 -22 -36 -65 -107 -96 -158 -31 -51 -56 -95 -56 -98 0 -2 -11 -22 -25 -44
-14 -22 -38 -64 -54 -92 -15 -29 -54 -100 -86 -158 -179 -328 -332 -696 -460
-1109 -70 -227 -100 -369 -115 -536 -5 -60 -16 -162 -24 -225 -66 -510 4 -938
239 -1460 126 -282 354 -671 557 -952 l33 -47 18 31 17 30 -43 72 c-24 39 -82
132 -129 206 -238 377 -396 694 -507 1015 -47 134 -126 389 -136 439 -43 200
-39 495 10 787 10 55 136 539 168 645 100 325 270 710 467 1059 64 114 128
231 270 495 46 85 135 245 198 355 336 585 558 911 817 1199 134 150 428 573
1047 1503 486 730 654 993 776 1213 14 25 42 74 62 110 41 70 200 391 239 480
13 30 33 75 44 100 10 25 23 54 28 65 5 11 22 52 37 90 33 81 12 70 261 141
279 80 390 98 596 98 206 1 271 -10 480 -79 212 -70 357 -141 476 -232 195
-150 299 -210 452 -263 97 -33 275 -73 407 -92 139 -19 440 -16 575 6 335 54
652 150 829 251 44 25 82 45 84 45 3 0 -3 -9 -14 -21 -18 -20 -18 -21 1 -36
28 -21 106 -10 177 25 56 27 57 28 60 8 3 -18 10 -21 50 -20 66 0 181 60 255
131 51 49 134 113 149 113 2 0 -4 -17 -15 -37 -21 -43 -141 -366 -142 -385 -1
-21 -328 -300 -524 -447 -365 -274 -585 -406 -1140 -681 -450 -223 -613 -311
-792 -431 -544 -365 -763 -801 -740 -1474 12 -360 51 -559 286 -1468 88 -337
104 -430 104 -587 1 -237 -43 -371 -267 -820 -223 -448 -263 -570 -272 -845
-5 -137 -3 -174 14 -258 77 -371 425 -668 892 -761 325 -65 614 -43 862 64
306 132 514 311 995 855 150 171 362 407 471 526 108 119 220 243 248 275 l51
59 49 -28 c189 -108 484 -224 658 -258 37 -7 70 -18 72 -24 3 -6 -18 -109 -46
-229 l-51 -217 -102 -118 c-300 -347 -475 -622 -542 -856 -134 -463 142 -918
680 -1120 l59 -23 98 -162 c88 -146 161 -262 208 -330 48 -71 72 -65 -254 -66
-247 0 -312 -4 -431 -22 -342 -54 -586 -148 -804 -313 -95 -71 -164 -145 -238
-256 -54 -81 -56 -82 -141 -119 -211 -90 -444 -217 -632 -345 -393 -267 -739
-599 -1005 -964 -215 -295 -348 -583 -456 -983 -17 -64 -38 -130 -47 -147 -28
-55 -52 -259 -59 -501 -3 -128 -3 -239 0 -248 4 -9 13 -13 20 -10 12 4 15 52
20 247 6 274 15 341 63 511 114 405 122 430 186 571 150 328 369 642 653 934
382 393 778 674 1235 875 366 161 680 242 1033 267 438 31 931 -89 1293 -317
584 -366 962 -1078 1069 -2014 23 -205 20 -193 58 -185 18 4 33 8 35 10 1 1
-2 42 -8 91 -6 49 -15 170 -20 269 -16 345 -77 589 -231 929 l-58 129 50 136
c544 1452 837 2933 905 4568 l6 161 32 6 c17 3 103 15 191 26 88 12 267 37
398 56 131 18 265 37 298 40 33 3 110 14 170 23 l110 18 62 -61 c66 -64 134
-99 259 -133 91 -25 302 -24 382 1 89 28 176 69 263 125 137 87 354 137 700
162 213 15 803 6 1043 -15 779 -70 1133 -137 1485 -282 235 -97 290 -81 239
70 -9 26 -14 49 -11 52 3 3 23 -4 45 -15 95 -48 425 -115 541 -109 94 5 135
23 218 102 202 188 488 687 555 965 33 139 23 251 -37 418 -46 128 -48 132
-83 144 -48 16 -178 7 -372 -25 -263 -44 -371 -67 -468 -98 -90 -28 -94 -29
-113 -12 -17 15 -23 16 -40 6 -16 -10 -52 -9 -182 4 -189 19 -656 15 -1302
-10 -209 -9 -598 -20 -865 -26 -267 -6 -573 -17 -680 -25 -338 -25 -321 -27
-476 55 -73 38 -161 77 -196 86 -109 28 -236 5 -368 -68 l-59 -32 -158 64
c-167 67 -300 129 -658 307 -225 112 -343 179 -806 461 l-265 162 -33 202
c-157 975 -417 1949 -765 2860 l-25 67 97 -43 c416 -185 902 -247 1542 -197
333 26 640 55 651 61 8 6 8 13 -1 30 -11 21 -11 22 11 16 43 -14 78 -18 94
-12 12 4 11 11 -7 42 l-22 37 45 -26 c45 -26 129 -38 129 -18 0 24 -86 309
-135 446 -464 1304 -1460 2456 -2685 3107 -105 56 -323 146 -456 189 l-72 22
19 55 c26 76 77 286 84 347 3 28 12 100 21 160 22 157 29 438 15 565 -33 294
-178 827 -314 1155 -68 164 -287 607 -352 710 -249 396 -663 782 -1030 960
-209 101 -451 170 -805 229 -433 72 -696 59 -1050 -51 -147 -46 -244 -73 -260
-73 -4 0 -38 39 -74 88 -293 391 -397 505 -647 713 -301 251 -589 439 -964
629 -582 295 -1162 464 -1855 541 -117 13 -698 21 -745 10z m695 -86 c532 -53
1052 -175 1500 -352 482 -190 1131 -588 1452 -892 64 -60 68 -66 68 -108 l0
-45 -72 67 c-268 248 -582 450 -1128 723 -313 157 -374 183 -592 258 -351 119
-685 189 -1223 254 -93 11 -213 29 -265 40 -100 21 -250 68 -250 77 0 10 343
-5 510 -22z m2246 -3260 c44 -33 74 -99 74 -162 l0 -51 -74 38 c-194 97 -418
84 -597 -36 -144 -95 -226 -233 -251 -419 -15 -107 6 -227 56 -328 20 -39 33
-73 30 -76 -3 -3 -47 -6 -97 -6 -75 0 -99 4 -132 22 -84 45 -132 127 -142 241
-12 142 47 244 227 395 258 216 550 373 740 397 105 14 131 12 166 -15z m-388
-312 c63 -46 79 -147 33 -211 -27 -39 -97 -67 -145 -58 -42 8 -91 46 -112 89
-33 63 0 156 68 191 42 21 120 16 156 -11z m2316 -1452 c241 -86 341 -297 270
-569 -18 -70 -54 -153 -64 -147 -4 2 -20 31 -36 62 -18 35 -59 88 -104 133
-117 117 -244 170 -410 170 -168 0 -294 -52 -411 -169 -122 -122 -169 -239
-169 -421 0 -89 4 -117 28 -186 52 -148 149 -261 283 -328 40 -20 65 -38 58
-41 -8 -3 -35 -11 -61 -19 l-47 -14 -68 50 c-161 118 -301 189 -468 238 l-90
26 -19 54 c-28 80 -27 285 2 395 47 176 177 380 318 500 120 102 210 155 361
216 108 43 132 50 261 68 139 20 280 13 366 -18z m-462 -552 c17 -12 37 -37
44 -55 64 -153 -107 -281 -231 -173 -82 73 -62 200 40 245 39 19 108 10 147
-17z m3206 -333 c92 -44 169 -71 457 -161 298 -93 557 -225 883 -452 341 -238
837 -683 1079 -968 449 -532 847 -1225 1099 -1915 l35 -94 -36 39 c-20 22 -75
99 -122 170 -47 72 -94 142 -104 157 -11 15 -19 30 -19 33 0 3 -22 42 -50 86
-27 44 -50 83 -50 85 0 2 -20 37 -43 77 -48 78 -166 277 -182 307 -64 112
-376 558 -449 640 -17 20 -42 51 -56 70 -14 19 -38 50 -55 69 -228 269 -473
518 -700 711 -27 24 -52 46 -55 49 -3 4 -27 25 -55 46 -27 22 -52 42 -55 45
-3 3 -23 18 -45 35 -22 16 -45 34 -52 40 -33 28 -45 37 -85 65 -24 17 -61 43
-83 57 -22 14 -45 32 -52 39 -7 7 -48 34 -91 60 -42 27 -90 58 -107 70 -16 11
-37 24 -45 27 -8 4 -24 13 -35 19 -88 57 -148 89 -289 158 -174 84 -257 123
-381 178 -96 42 -201 98 -246 132 -58 42 -144 137 -174 192 l-29 52 50 -36
c27 -20 91 -57 142 -82z m-354 -1619 c3 -334 16 -436 86 -647 145 -442 436
-793 967 -1166 l58 -41 77 -194 c310 -784 545 -1571 708 -2364 49 -240 112
-587 106 -592 -2 -2 -126 66 -276 152 -388 222 -618 345 -1000 536 -567 283
-990 475 -1199 545 -141 47 -285 84 -326 84 -29 0 -50 18 -197 173 -166 172
-323 367 -334 414 -9 33 11 204 42 383 33 182 90 414 194 785 104 373 137 477
223 715 l70 195 105 99 c250 239 422 530 511 867 28 103 78 330 96 433 l7 40
40 -63 40 -63 2 -291z m-6639 -2386 c-3 -6 35 -8 100 -4 79 5 105 3 105 -6 0
-18 -123 -208 -318 -491 -217 -315 -213 -310 -415 -615 -144 -216 -215 -320
-406 -592 -20 -28 -128 -179 -241 -335 -112 -155 -307 -427 -432 -603 -126
-176 -244 -341 -263 -367 l-34 -46 -98 -7 c-101 -8 -460 1 -501 12 -20 5 -23
10 -18 37 28 151 33 345 12 447 -41 194 -186 324 -406 365 -116 22 -333 15
-445 -15 -105 -27 -260 -105 -360 -179 -77 -58 -206 -184 -272 -266 l-32 -39
-248 77 c-136 42 -249 79 -251 80 -5 6 107 95 142 114 24 13 27 17 13 20 -30
6 -99 -34 -192 -113 -49 -41 -105 -80 -123 -86 -66 -22 -137 -4 -267 68 -44
24 -198 42 -368 43 -399 1 -1107 -121 -1662 -286 -441 -132 -926 -350 -1377
-620 -86 -52 -161 -94 -166 -94 -7 0 -5 11 4 28 20 38 18 82 -3 82 -9 0 -50
-22 -92 -49 -42 -26 -87 -52 -99 -56 -21 -6 -23 -5 -13 13 8 15 8 21 -1 24
-18 6 3 82 73 265 135 350 184 600 184 948 0 227 -10 294 -60 403 -17 38 -21
54 -12 57 7 3 98 12 202 21 258 23 738 29 1100 14 345 -13 1006 -1 1285 25
324 29 606 77 752 126 35 11 98 38 140 59 42 21 79 36 82 33 15 -15 64 23 176
137 204 206 265 224 494 150 119 -39 227 -59 311 -59 56 0 26 15 -47 24 -55 6
-82 25 -37 25 87 0 394 85 742 204 l247 85 148 -118 c81 -65 230 -187 332
-270 353 -290 453 -337 737 -348 168 -6 282 10 438 64 200 69 357 170 543 347
297 285 529 671 674 1121 23 72 43 132 45 134 3 4 70 12 166 20 10 0 16 -3 12
-8z m5561 -1363 c-3 -18 -14 -86 -23 -153 -22 -152 -25 -624 -5 -760 79 -546
279 -885 616 -1041 123 -56 213 -75 386 -81 186 -7 312 10 466 62 181 60 306
131 569 320 227 164 296 207 428 271 160 77 256 98 442 98 l150 1 315 -191
c173 -105 369 -224 435 -263 66 -40 121 -74 123 -75 1 -2 9 -45 18 -97 44
-261 134 -423 272 -491 40 -20 63 -23 152 -23 98 0 110 2 171 32 36 18 91 56
124 86 l59 53 165 -71 c92 -40 219 -92 285 -116 l118 -43 -61 -56 c-34 -30
-61 -58 -61 -62 0 -21 44 -3 92 38 29 26 68 53 86 60 17 8 32 19 32 24 0 16
141 78 207 90 34 7 82 9 107 6 48 -7 185 -71 347 -162 54 -30 104 -54 112 -54
28 0 31 22 6 41 -24 18 -24 19 61 19 47 0 184 7 305 15 121 8 284 15 362 15
l143 0 47 -46 c87 -83 248 -145 414 -160 195 -17 447 59 639 194 l65 46 235 8
c239 9 744 4 924 -10 98 -7 100 -7 107 -35 23 -84 26 -214 9 -326 -15 -94 -67
-330 -97 -436 -39 -139 -137 -349 -201 -434 l-56 -74 17 -80 c9 -45 14 -83 11
-86 -2 -3 -28 6 -57 18 -156 70 -493 168 -740 216 -343 67 -1017 125 -1455
125 -374 0 -706 -29 -915 -79 l-79 -19 36 37 c80 82 32 68 -134 -39 -178 -115
-265 -162 -365 -196 -92 -30 -197 -36 -285 -15 -138 34 -271 134 -325 245 -19
38 -33 56 -46 56 -21 0 -24 -16 -9 -56 6 -15 9 -28 8 -30 -5 -4 -1268 -176
-1603 -218 -1006 -126 -1461 -161 -1789 -137 -537 40 -937 192 -1314 501 -529
432 -772 762 -957 1302 -223 650 -239 1156 -49 1567 90 195 305 446 479 559
129 84 296 139 429 141 l59 1 -7 -32z m3260 -4095 c-53 -1246 -237 -2367 -577
-3523 -62 -211 -225 -706 -257 -781 l-18 -43 -85 124 c-86 128 -134 193 -510
690 -636 841 -936 1355 -1014 1735 -48 236 -42 420 24 729 65 300 255 1093
264 1102 1 1 52 -4 112 -11 273 -33 573 -29 1010 16 243 24 877 96 960 108
109 16 99 33 91 -146z"/>
<path d="M25500 39330 c-1897 -78 -3638 -481 -5360 -1240 -252 -111 -861 -414
-1105 -550 -253 -141 -705 -412 -705 -422 0 -12 181 -209 189 -206 4 2 101 60
216 129 2433 1461 5302 2160 8160 1989 94 -5 186 -12 205 -15 34 -4 41 0 170
130 113 113 131 135 110 135 -13 0 -110 7 -215 15 -472 37 -1230 53 -1665 35z"/>
<path d="M7540 38111 c-240 -33 -484 -205 -657 -461 -251 -373 -200 -766 144
-1101 65 -64 1425 -1210 1632 -1376 415 -332 855 -317 1198 40 180 188 282
383 301 579 26 252 -63 475 -269 685 -88 89 -1617 1375 -1727 1452 -199 139
-433 208 -622 182z m195 -613 c69 -36 63 -31 958 -781 668 -561 803 -678 836
-729 91 -135 78 -248 -41 -374 -66 -70 -123 -97 -200 -97 -117 1 -128 9 -1008
748 -443 372 -830 701 -862 732 -81 81 -112 142 -113 223 0 47 6 77 22 110 34
68 107 145 165 175 46 23 62 26 123 22 49 -3 85 -12 120 -29z"/>
<path d="M29925 35316 c-188 -44 -256 -157 -300 -496 -11 -81 -24 -140 -38
-168 -36 -73 -109 -136 -221 -193 -205 -105 -246 -143 -246 -229 0 -63 27
-102 94 -135 170 -83 326 22 405 272 38 122 54 204 80 408 37 285 68 384 138
446 39 34 107 68 135 69 22 0 31 15 15 27 -8 7 -29 6 -62 -1z"/>
<path d="M15679 34986 c-119 -121 -245 -252 -281 -291 -36 -38 -96 -104 -135
-145 -245 -263 -604 -698 -878 -1065 -831 -1113 -1491 -2326 -1982 -3639 -273
-733 -515 -1606 -657 -2381 -19 -104 -34 -191 -32 -192 3 -3 348 385 360 405
4 8 28 103 52 213 571 2594 1876 4998 3738 6887 137 139 247 254 245 255 -2 2
-50 42 -105 90 -56 48 -103 86 -105 86 -2 -1 -101 -101 -220 -223z"/>
<path d="M5250 35023 c-99 -16 -224 -74 -321 -149 -161 -124 -319 -361 -385
-580 -23 -76 -27 -108 -28 -219 -1 -141 16 -220 71 -330 61 -121 198 -272 333
-367 98 -68 1800 -1113 1877 -1152 173 -87 329 -122 501 -113 251 13 458 144
628 398 234 350 256 694 64 979 -60 90 -187 213 -295 286 -128 87 -1788 1105
-1860 1141 -80 41 -195 81 -278 99 -63 13 -246 17 -307 7z m251 -603 c30 -12
465 -274 968 -583 978 -601 1018 -629 1061 -729 45 -105 9 -238 -91 -338 -84
-84 -180 -98 -309 -46 -30 12 -468 276 -974 586 -974 600 -1008 623 -1055 725
-44 95 -12 220 82 322 61 67 126 95 203 89 33 -3 85 -15 115 -26z"/>
<path d="M28774 33398 c7 -24 45 -211 96 -473 38 -197 90 -356 165 -506 122
-241 245 -418 414 -593 479 -494 1013 -690 1635 -600 21 3 77 16 125 30 300
86 547 236 812 491 53 51 101 93 107 93 6 0 18 -21 25 -47 12 -40 18 -48 38
-48 21 0 24 5 27 44 3 41 1 46 -50 93 -29 27 -69 53 -88 59 -49 14 -175 -1
-175 -21 0 -12 15 -15 73 -16 75 -1 111 -16 82 -34 -21 -14 -304 -106 -398
-129 -42 -11 -115 -25 -162 -32 -47 -6 -101 -20 -120 -29 l-35 -18 50 4 c111
10 249 37 409 79 94 24 172 42 175 39 6 -5 -46 -51 -158 -142 -171 -139 -403
-270 -574 -327 -379 -126 -800 -87 -1191 108 -82 40 -254 145 -276 167 -3 3
-36 31 -75 62 -91 73 -255 241 -335 343 -215 272 -327 503 -415 855 -35 140
-84 360 -88 395 -4 30 -77 175 -89 175 -6 0 -8 -9 -4 -22z"/>
<path d="M30547 33194 c-1 -1 -29 -4 -62 -8 -125 -12 -250 -62 -345 -137 -62
-49 -66 -77 -16 -124 41 -39 163 -99 304 -150 94 -34 110 -37 173 -32 95 8
167 46 317 166 182 147 154 137 280 105 253 -63 371 -43 444 74 17 28 19 36 7
43 -20 13 -21 13 -68 -31 -53 -50 -132 -75 -205 -66 -81 10 -99 14 -336 76
-243 64 -257 67 -340 76 -54 5 -150 10 -153 8z"/>
<path d="M29170 32836 c0 -2 8 -10 18 -17 15 -13 16 -12 3 4 -13 16 -21 21
-21 13z"/>
<path d="M29210 32786 c0 -2 8 -10 18 -17 15 -13 16 -12 3 4 -13 16 -21 21
-21 13z"/>
<path d="M29250 32736 c0 -2 8 -10 18 -17 15 -13 16 -12 3 4 -13 16 -21 21
-21 13z"/>
<path d="M29290 32686 c0 -2 8 -10 18 -17 15 -13 16 -12 3 4 -13 16 -21 21
-21 13z"/>
<path d="M29330 32636 c0 -2 8 -10 18 -17 15 -13 16 -12 3 4 -13 16 -21 21
-21 13z"/>
<path d="M29760 31986 c0 -2 8 -10 18 -17 15 -13 16 -12 3 4 -13 16 -21 21
-21 13z"/>
<path d="M29810 31926 c0 -2 8 -10 18 -17 15 -13 16 -12 3 4 -13 16 -21 21
-21 13z"/>
<path d="M29860 31866 c0 -2 8 -10 18 -17 15 -13 16 -12 3 4 -13 16 -21 21
-21 13z"/>
<path d="M29950 31766 c0 -2 8 -10 18 -17 15 -13 16 -12 3 4 -13 16 -21 21
-21 13z"/>
<path d="M3126 31582 c-11 -19 -146 -337 -146 -345 0 -5 29 -41 65 -79 118
-124 171 -225 182 -344 7 -80 -11 -197 -47 -296 l-28 -76 186 -79 c103 -43
191 -78 195 -78 5 0 48 92 96 205 48 113 92 204 97 203 5 -1 600 -254 1322
-563 722 -309 1314 -561 1316 -559 7 10 226 529 226 536 0 6 -451 202 -1002
438 -552 235 -1016 433 -1033 441 -16 7 -52 22 -80 34 -27 12 -59 25 -70 30
-11 5 -42 18 -70 30 -27 12 -59 25 -70 30 -45 20 -130 56 -560 239 -247 106
-466 199 -485 207 -19 8 -43 19 -52 24 -22 12 -35 13 -42 2z"/>
<path d="M14805 30545 c-489 -19 -951 -36 -1025 -39 -151 -5 -189 -15 -291
-76 -202 -120 -330 -345 -359 -633 -7 -72 -7 -180 0 -348 11 -289 4 -274 125
-265 120 9 2852 106 2986 106 166 0 154 -24 141 307 -13 295 -28 395 -81 526
-101 254 -327 444 -536 453 -38 1 -470 -13 -960 -31z"/>
<path d="M23420 22664 c-195 -19 -370 -82 -553 -201 -192 -123 -351 -319 -402
-497 -24 -82 -17 -225 13 -281 12 -22 86 -137 164 -255 153 -230 181 -260 285
-302 52 -21 73 -23 213 -22 139 1 164 4 245 28 430 130 774 483 775 793 0 90
-20 136 -124 290 -51 76 -112 170 -135 209 -75 127 -162 197 -276 222 -60 13
-157 20 -205 16z m142 -133 c65 -25 129 -87 148 -146 22 -67 8 -166 -36 -252
-109 -215 -376 -398 -648 -444 -161 -27 -322 29 -376 131 -38 70 -29 183 22
285 110 219 362 393 648 449 55 10 186 -2 242 -23z"/>
<path d="M28656 20513 c-6 -14 -5 -15 5 -6 7 7 10 15 7 18 -3 3 -9 -2 -12 -12z"/>
<path d="M28606 20413 c-6 -14 -5 -15 5 -6 7 7 10 15 7 18 -3 3 -9 -2 -12 -12z"/>
<path d="M28576 20353 c-6 -14 -5 -15 5 -6 7 7 10 15 7 18 -3 3 -9 -2 -12 -12z"/>
<path d="M31007 19763 c-5 -27 -2 -41 7 -32 11 10 17 59 8 59 -5 0 -12 -12
-15 -27z"/>
<path d="M27819 19713 l-34 -38 38 34 c20 19 37 36 37 38 0 8 -8 0 -41 -34z"/>
<path d="M30952 19680 c0 -14 2 -19 5 -12 2 6 2 18 0 25 -3 6 -5 1 -5 -13z"/>
<path d="M18610 19639 c-102 -7 -156 -29 -226 -92 -27 -25 -151 -158 -274
-296 -123 -138 -227 -251 -231 -251 -3 0 -9 64 -11 143 -5 122 -9 152 -33 214
-40 108 -124 189 -235 228 -88 31 -252 15 -329 -32 -52 -33 -113 -99 -142
-155 -53 -105 -54 -127 -27 -863 13 -368 23 -671 22 -673 -1 -2 -21 6 -43 18
-86 43 -125 46 -482 33 -183 -7 -334 -11 -336 -9 -2 2 -15 296 -28 652 -25
690 -27 708 -80 799 -27 46 -108 126 -151 148 -97 50 -260 51 -358 3 -31 -15
-76 -48 -101 -73 -84 -84 -115 -172 -115 -333 0 -210 50 -1527 61 -1593 24
-148 120 -267 247 -308 78 -25 170 -26 631 -9 157 5 351 12 431 15 80 2 158 7
173 10 70 14 142 50 188 94 l49 47 41 -42 c23 -23 71 -57 107 -76 63 -32 71
-33 177 -33 102 0 114 3 168 30 76 38 158 126 189 202 22 55 23 70 23 295 l0
238 42 42 c23 23 44 40 46 38 12 -14 311 -442 378 -541 88 -132 147 -189 239
-233 60 -28 73 -30 175 -30 92 -1 120 3 167 22 77 31 159 107 197 183 28 55
29 66 27 157 -5 168 -17 189 -390 686 l-247 328 204 207 c174 176 209 216 238
276 31 64 34 77 34 165 0 68 -5 107 -18 139 -66 161 -209 244 -397 230z m158
-141 c90 -43 137 -119 136 -223 0 -104 -23 -137 -288 -410 l-228 -236 302
-402 c344 -456 375 -508 375 -622 -1 -108 -38 -165 -145 -221 -55 -29 -190
-26 -253 5 -73 36 -102 65 -180 180 -92 138 -445 642 -462 660 -11 11 -32 -6
-124 -100 l-111 -114 6 -225 c6 -191 4 -234 -9 -280 -54 -186 -284 -252 -435
-125 -46 38 -70 92 -82 177 -10 71 -60 1409 -60 1599 0 130 19 189 78 248 54
54 101 71 193 71 75 0 129 -22 177 -70 76 -76 88 -134 98 -473 4 -136 10 -246
14 -245 3 2 98 106 211 232 377 425 464 519 501 549 71 57 196 68 286 25z
m-2831 -100 c24 -11 60 -39 81 -63 71 -81 70 -73 98 -850 14 -385 27 -701 29
-703 2 -2 133 1 292 7 456 18 511 17 564 -6 63 -28 116 -86 134 -146 19 -63
19 -81 0 -143 -18 -61 -63 -109 -132 -141 -52 -24 -64 -25 -585 -44 -609 -22
-638 -20 -717 46 -35 30 -63 78 -80 140 -16 58 -72 1646 -61 1708 14 69 56
142 102 173 77 54 189 63 275 22z"/>
<path d="M17550 19306 c0 -2 8 -10 18 -17 15 -13 16 -12 3 4 -13 16 -21 21
-21 13z"/>
<path d="M18762 19280 c0 -14 2 -19 5 -12 2 6 2 18 0 25 -3 6 -5 1 -5 -13z"/>
<path d="M17361 19272 c-18 -34 -20 -89 -12 -272 l10 -185 -4 200 c-3 147 0
210 10 238 13 39 12 49 -4 19z"/>
<path d="M18465 19248 l-40 -43 43 40 c39 36 47 45 39 45 -2 0 -21 -19 -42
-42z"/>
<path d="M18746 19223 c-6 -14 -5 -15 5 -6 7 7 10 15 7 18 -3 3 -9 -2 -12 -12z"/>
<path d="M17603 19135 c0 -38 2 -53 4 -32 2 20 2 52 0 70 -2 17 -4 1 -4 -38z"/>
<path d="M18399 19173 l-24 -28 28 24 c15 14 27 26 27 28 0 8 -8 1 -31 -24z"/>
<path d="M18645 19108 l-80 -83 83 80 c45 44 82 81 82 82 0 8 -11 -3 -85 -79z"/>
<path d="M18309 19073 l-24 -28 28 24 c15 14 27 26 27 28 0 8 -8 1 -31 -24z"/>
<path d="M18229 18983 l-24 -28 28 24 c25 23 32 31 24 31 -2 0 -14 -12 -28
-27z"/>
<path d="M17613 18860 c0 -41 2 -58 4 -37 2 20 2 54 0 75 -2 20 -4 3 -4 -38z"/>
<path d="M18149 18893 l-24 -28 28 24 c15 14 27 26 27 28 0 8 -8 1 -31 -24z"/>
<path d="M18059 18793 l-24 -28 28 24 c25 23 32 31 24 31 -2 0 -14 -12 -28
-27z"/>
<path d="M17364 18675 c0 -77 2 -107 3 -67 2 40 2 103 0 140 -2 37 -3 4 -3
-73z"/>
<path d="M17986 18712 c-22 -27 -24 -32 -7 -17 20 17 47 55 39 55 -2 0 -16
-17 -32 -38z"/>
<path d="M18249 18703 l-24 -28 28 24 c15 14 27 26 27 28 0 8 -8 1 -31 -24z"/>
<path d="M17623 18580 c0 -41 2 -58 4 -37 2 20 2 54 0 75 -2 20 -4 3 -4 -38z"/>
<path d="M17894 18608 l-29 -33 33 29 c17 17 32 31 32 33 0 8 -8 1 -36 -29z"/>
<path d="M17809 18513 l-24 -28 28 24 c25 23 32 31 24 31 -2 0 -14 -12 -28
-27z"/>
<path d="M18270 18536 c0 -2 8 -10 18 -17 15 -13 16 -12 3 4 -13 16 -21 21
-21 13z"/>
<path d="M17374 18395 c0 -77 2 -107 3 -67 2 40 2 103 0 140 -2 37 -3 4 -3
-73z"/>
<path d="M17630 18463 c0 -5 10 -18 23 -29 l22 -19 -20 25 c-11 14 -21 27 -22
29 -2 2 -3 0 -3 -6z"/>
<path d="M17920 18363 l-65 -68 68 65 c62 60 72 70 64 70 -1 0 -32 -30 -67
-67z"/>
<path d="M18060 18426 c0 -2 8 -10 18 -17 15 -13 16 -12 3 4 -13 16 -21 21
-21 13z"/>
<path d="M18130 18331 c5 -11 15 -23 21 -27 6 -3 3 5 -6 20 -20 30 -30 35 -15
7z"/>
<path d="M18450 18296 c0 -2 8 -10 18 -17 15 -13 16 -12 3 4 -13 16 -21 21
-21 13z"/>
<path d="M17384 18115 c0 -77 2 -107 3 -67 2 40 2 103 0 140 -2 37 -3 4 -3
-73z"/>
<path d="M18510 18216 c0 -2 8 -10 18 -17 15 -13 16 -12 3 4 -13 16 -21 21
-21 13z"/>
<path d="M17666 18099 c-22 -26 -26 -40 -26 -94 0 -35 3 -66 8 -68 4 -3 6 25
4 62 -3 61 -1 71 23 99 15 18 25 32 22 32 -3 0 -17 -14 -31 -31z"/>
<path d="M18300 18090 c12 -16 24 -30 26 -30 3 0 -4 14 -16 30 -12 17 -24 30
-26 30 -3 0 4 -13 16 -30z"/>
<path d="M18630 18056 c0 -2 8 -10 18 -17 15 -13 16 -12 3 4 -13 16 -21 21
-21 13z"/>
<path d="M18370 17990 c12 -16 24 -30 26 -30 3 0 -4 14 -16 30 -12 17 -24 30
-26 30 -3 0 4 -13 16 -30z"/>
<path d="M17394 17835 c0 -77 2 -107 3 -67 2 40 2 103 0 140 -2 37 -3 4 -3
-73z"/>
<path d="M18420 17916 c0 -2 8 -10 18 -17 15 -13 16 -12 3 4 -13 16 -21 21
-21 13z"/>
<path d="M18760 17891 c0 -6 4 -13 10 -16 6 -3 7 1 4 9 -7 18 -14 21 -14 7z"/>
<path d="M18476 17837 c3 -10 9 -15 12 -12 3 3 0 11 -7 18 -10 9 -11 8 -5 -6z"/>
<path d="M17653 17730 c0 -41 2 -58 4 -37 2 20 2 54 0 75 -2 20 -4 3 -4 -38z"/>
<path d="M18530 17761 c5 -11 15 -23 21 -27 6 -3 3 5 -6 20 -20 30 -30 35 -15
7z"/>
<path d="M18876 17727 c3 -10 9 -15 12 -12 3 3 0 11 -7 18 -10 9 -11 8 -5 -6z"/>
<path d="M17403 17630 c0 -36 2 -50 4 -32 2 17 2 47 0 65 -2 17 -4 3 -4 -33z"/>
<path d="M18628 17615 c6 -11 25 -33 44 -50 l33 -30 -35 40 c-19 22 -39 45
-44 50 -5 6 -4 1 2 -10z"/>
<path d="M18922 17605 c0 -16 2 -22 5 -12 2 9 2 23 0 30 -3 6 -5 -1 -5 -18z"/>
<path d="M17652 17580 c0 -14 2 -19 5 -12 2 6 2 18 0 25 -3 6 -5 1 -5 -13z"/>
<path d="M17410 17546 c0 -8 4 -17 9 -20 5 -4 7 3 4 14 -6 23 -13 26 -13 6z"/>
<path d="M17619 17503 c-13 -16 -12 -17 4 -4 16 13 21 21 13 21 -2 0 -10 -8
-17 -17z"/>
<path d="M15900 19246 c0 -2 8 -10 18 -17 15 -13 16 -12 3 4 -13 16 -21 21
-21 13z"/>
<path d="M15699 19193 c-8 -21 -4 -233 15 -808 15 -429 29 -787 30 -795 9 -38
5 126 -20 815 -19 518 -24 751 -17 778 12 43 7 49 -8 10z"/>
<path d="M15941 19164 c0 -11 3 -14 6 -6 3 7 2 16 -1 19 -3 4 -6 -2 -5 -13z"/>
<path d="M15953 18985 c0 -44 2 -61 4 -37 2 23 2 59 0 80 -2 20 -4 1 -4 -43z"/>
<path d="M15961 18703 c0 -39 2 -74 7 -76 4 -3 6 18 4 46 -5 92 -9 104 -11 30z"/>
<path d="M15971 18423 c0 -39 2 -74 7 -76 4 -3 6 18 4 46 -5 92 -9 104 -11 30z"/>
<path d="M15981 18143 c0 -39 2 -74 7 -76 4 -3 6 18 4 46 -5 92 -9 104 -11 30z"/>
<path d="M15993 17860 c0 -41 2 -58 4 -37 2 20 2 54 0 75 -2 20 -4 3 -4 -38z"/>
<path d="M16010 17656 c0 -2 8 -10 18 -17 15 -13 16 -12 3 4 -13 16 -21 21
-21 13z"/>
<path d="M17001 17564 c0 -11 3 -14 6 -6 3 7 2 16 -1 19 -3 4 -6 -2 -5 -13z"/>
<path d="M15751 17549 c-1 -14 6 -34 15 -45 8 -10 12 -13 8 -5 -4 8 -11 28
-15 45 -6 29 -7 29 -8 5z"/>
<path d="M30951 19604 c0 -11 3 -14 6 -6 3 7 2 16 -1 19 -3 4 -6 -2 -5 -13z"/>
<path d="M27736 19595 c-9 -26 -7 -32 5 -12 6 10 9 21 6 23 -2 3 -7 -2 -11
-11z"/>
<path d="M31021 19568 c-1 -4 14 -34 31 -68 66 -124 216 -261 287 -259 20 0
45 4 55 8 17 7 16 9 -14 19 -95 34 -234 147 -332 273 -15 19 -27 31 -27 27z"/>
<path d="M27711 19514 c0 -11 3 -14 6 -6 3 7 2 16 -1 19 -3 4 -6 -2 -5 -13z"/>
<path d="M14863 19496 c-88 -28 -173 -104 -217 -191 -51 -104 -51 -104 -22
-950 14 -429 31 -822 36 -874 14 -126 45 -193 121 -266 88 -84 130 -99 269
-100 101 0 121 3 163 24 79 39 142 104 184 189 37 74 38 79 40 197 4 167 -44
1532 -57 1629 -18 147 -94 262 -212 322 -46 25 -66 28 -158 31 -69 2 -119 -2
-147 -11z m255 -132 c60 -29 95 -70 124 -146 19 -49 23 -111 50 -833 16 -429
27 -818 25 -865 -7 -174 -92 -276 -241 -287 -162 -13 -273 87 -292 262 -7 70
-54 1430 -54 1570 0 91 4 125 21 169 24 65 91 131 148 145 20 5 45 12 56 14
37 10 109 -4 163 -29z"/>
<path d="M14882 19188 c-7 -7 -11 -21 -11 -32 1 -21 1 -21 6 -1 3 11 10 26 15
33 13 15 6 16 -10 0z"/>
<path d="M14866 18965 c3 -94 12 -316 19 -495 7 -179 13 -287 14 -240 1 117
-28 893 -35 899 -3 3 -2 -71 2 -164z"/>
<path d="M15123 19030 c0 -41 2 -58 4 -37 2 20 2 54 0 75 -2 20 -4 3 -4 -38z"/>
<path d="M15133 18750 c0 -41 2 -58 4 -37 2 20 2 54 0 75 -2 20 -4 3 -4 -38z"/>
<path d="M15143 18470 c0 -41 2 -58 4 -37 2 20 2 54 0 75 -2 20 -4 3 -4 -38z"/>
<path d="M15153 18180 c0 -41 2 -58 4 -37 2 20 2 54 0 75 -2 20 -4 3 -4 -38z"/>
<path d="M14904 18005 c0 -77 2 -107 3 -67 2 40 2 103 0 140 -2 37 -3 4 -3
-73z"/>
<path d="M15163 17900 c0 -41 2 -58 4 -37 2 20 2 54 0 75 -2 20 -4 3 -4 -38z"/>
<path d="M14914 17725 c0 -77 2 -107 3 -67 2 40 2 103 0 140 -2 37 -3 4 -3
-73z"/>
<path d="M15173 17620 c0 -41 2 -58 4 -37 2 20 2 54 0 75 -2 20 -4 3 -4 -38z"/>
<path d="M14921 17537 c-1 -53 17 -104 44 -127 14 -11 12 -6 -5 17 -15 21 -25
53 -30 95 -7 61 -7 61 -9 15z"/>
<path d="M15172 17500 c0 -14 2 -19 5 -12 2 6 2 18 0 25 -3 6 -5 1 -5 -13z"/>
<path d="M13915 19440 c-108 -11 -188 -43 -247 -98 -77 -71 -99 -132 -178
-487 -17 -77 -34 -149 -37 -159 -3 -12 -34 74 -77 215 -39 129 -84 260 -99
291 -63 129 -173 196 -332 202 -22 1 -105 -1 -185 -5 -109 -5 -160 -12 -205
-28 -132 -46 -208 -130 -241 -262 -15 -61 -14 -117 15 -909 36 -992 30 -947
140 -1063 176 -186 502 -133 602 97 13 31 27 56 31 56 3 0 18 -20 32 -44 32
-55 112 -127 170 -155 121 -56 271 -54 391 6 64 33 144 115 174 180 l24 51 23
-47 c32 -63 106 -136 174 -169 49 -24 66 -27 160 -27 87 0 113 4 153 22 105
49 170 125 208 242 l21 66 -31 850 c-17 468 -36 870 -42 895 -17 73 -69 159
-121 201 -83 65 -142 82 -303 85 -77 1 -176 -1 -220 -6z m398 -144 c69 -33
110 -88 127 -170 15 -70 70 -1638 60 -1703 -22 -133 -121 -222 -250 -223 -62
0 -141 32 -177 71 -65 71 -76 147 -88 584 -6 246 -11 315 -24 315 -4 0 -35
-134 -70 -297 -70 -330 -105 -480 -126 -529 -20 -48 -90 -119 -140 -143 -135
-63 -299 -20 -375 99 -40 62 -56 110 -170 505 -50 176 -96 324 -101 330 -12
12 -12 -24 2 -420 14 -375 10 -405 -56 -482 -50 -59 -106 -83 -190 -83 -152 0
-236 91 -250 270 -11 137 -57 1519 -53 1600 5 106 31 160 101 207 63 43 133
55 312 57 179 1 223 -11 283 -79 46 -53 62 -97 216 -605 62 -206 117 -375 122
-377 5 -2 53 192 107 429 55 238 108 460 119 493 50 151 127 185 413 182 143
-2 153 -3 208 -31z"/>
<path d="M13834 19125 c-9 -13 -14 -28 -12 -33 1 -5 10 6 19 24 19 40 16 44
-7 9z"/>
<path d="M14301 19074 c0 -11 3 -14 6 -6 3 7 2 16 -1 19 -3 4 -6 -2 -5 -13z"/>
<path d="M12567 19040 c-6 -25 50 -1606 59 -1654 3 -19 18 -45 32 -58 l27 -23
-21 25 c-12 14 -25 39 -28 55 -9 43 -66 1630 -59 1655 3 11 3 20 0 20 -2 0 -7
-9 -10 -20z"/>
<path d="M13801 19024 c0 -11 3 -14 6 -6 3 7 2 16 -1 19 -3 4 -6 -2 -5 -13z"/>
<path d="M13781 18944 c-7 -30 -11 -57 -8 -60 2 -2 9 21 16 52 7 30 11 57 8
60 -2 2 -9 -21 -16 -52z"/>
<path d="M14313 18850 c0 -41 2 -58 4 -37 2 20 2 54 0 75 -2 20 -4 3 -4 -38z"/>
<path d="M14080 18859 c5 -19 19 -335 31 -704 11 -368 24 -683 28 -700 4 -16
6 15 3 70 -2 55 -14 380 -26 722 -15 442 -25 626 -33 634 -9 9 -10 4 -3 -22z"/>
<path d="M13756 18834 c-4 -20 -5 -38 -3 -40 3 -3 8 11 11 32 4 20 5 38 3 40
-3 3 -8 -11 -11 -32z"/>
<path d="M12941 18790 c0 -8 4 -24 9 -35 5 -13 9 -14 9 -5 0 8 -4 24 -9 35 -5
13 -9 14 -9 5z"/>
<path d="M13720 18680 c-12 -56 -20 -103 -18 -105 2 -3 14 41 27 96 12 56 21
103 18 105 -2 2 -14 -41 -27 -96z"/>
<path d="M12803 18655 c0 -44 2 -61 4 -37 2 23 2 59 0 80 -2 20 -4 1 -4 -43z"/>
<path d="M12967 18700 c6 -38 31 -111 32 -95 0 6 -8 37 -19 70 -11 33 -17 44
-13 25z"/>
<path d="M14322 18600 c0 -19 2 -27 5 -17 2 9 2 25 0 35 -3 9 -5 1 -5 -18z"/>
<path d="M13001 18580 c0 -8 4 -24 9 -35 5 -13 9 -14 9 -5 0 8 -4 24 -9 35 -5
13 -9 14 -9 5z"/>
<path d="M13686 18524 c-4 -20 -5 -38 -3 -40 3 -3 8 11 11 32 4 20 5 38 3 40
-3 3 -8 -11 -11 -32z"/>
<path d="M14322 18530 c0 -19 2 -27 5 -17 2 9 2 25 0 35 -3 9 -5 1 -5 -18z"/>
<path d="M13031 18480 c0 -8 4 -24 9 -35 5 -13 9 -14 9 -5 0 8 -4 24 -9 35 -5
13 -9 14 -9 5z"/>
<path d="M13671 18454 c0 -11 3 -14 6 -6 3 7 2 16 -1 19 -3 4 -6 -2 -5 -13z"/>
<path d="M13656 18394 c-4 -20 -5 -38 -3 -40 3 -3 8 11 11 32 4 20 5 38 3 40
-3 3 -8 -11 -11 -32z"/>
<path d="M13051 18410 c0 -8 4 -24 9 -35 5 -13 9 -14 9 -5 0 8 -4 24 -9 35 -5
13 -9 14 -9 5z"/>
<path d="M12813 18370 c0 -25 2 -35 4 -22 2 12 2 32 0 45 -2 12 -4 2 -4 -23z"/>
<path d="M14333 18290 c0 -41 2 -58 4 -37 2 20 2 54 0 75 -2 20 -4 3 -4 -38z"/>
<path d="M13071 18340 c0 -8 4 -24 9 -35 5 -13 9 -14 9 -5 0 8 -4 24 -9 35 -5
13 -9 14 -9 5z"/>
<path d="M13631 18284 c-7 -30 -11 -57 -8 -60 2 -2 9 21 16 52 7 30 11 57 8
60 -2 2 -9 -21 -16 -52z"/>
<path d="M13091 18270 c0 -8 4 -24 9 -35 5 -13 9 -14 9 -5 0 8 -4 24 -9 35 -5
13 -9 14 -9 5z"/>
<path d="M13112 18200 c0 -8 6 -31 13 -50 7 -19 13 -28 13 -20 0 8 -6 31 -13
50 -7 19 -13 28 -13 20z"/>
<path d="M13606 18174 c-4 -20 -5 -38 -3 -40 3 -3 8 11 11 32 4 20 5 38 3 40
-3 3 -8 -11 -11 -32z"/>
<path d="M12823 18075 c0 -33 2 -45 4 -27 2 18 2 45 0 60 -2 15 -4 0 -4 -33z"/>
<path d="M13581 18064 c-7 -30 -11 -57 -8 -60 2 -2 9 21 16 52 7 30 11 57 8
60 -2 2 -9 -21 -16 -52z"/>
<path d="M13141 18100 c0 -8 4 -24 9 -35 5 -13 9 -14 9 -5 0 8 -4 24 -9 35 -5
13 -9 14 -9 5z"/>
<path d="M14342 18060 c0 -14 2 -19 5 -12 2 6 2 18 0 25 -3 6 -5 1 -5 -13z"/>
<path d="M13161 18030 c0 -8 4 -24 9 -35 5 -13 9 -14 9 -5 0 8 -4 24 -9 35 -5
13 -9 14 -9 5z"/>
<path d="M14343 17985 c0 -27 2 -38 4 -22 2 15 2 37 0 50 -2 12 -4 0 -4 -28z"/>
<path d="M13556 17954 c-4 -20 -5 -38 -3 -40 3 -3 8 11 11 32 4 20 5 38 3 40
-3 3 -8 -11 -11 -32z"/>
<path d="M13181 17960 c0 -8 4 -24 9 -35 5 -13 9 -14 9 -5 0 8 -4 24 -9 35 -5
13 -9 14 -9 5z"/>
<path d="M13206 17870 c4 -19 10 -42 15 -50 11 -18 1 34 -13 65 -5 13 -6 9 -2
-15z"/>
<path d="M13537 17885 c-4 -11 -10 -27 -13 -35 -3 -8 1 -5 11 8 9 12 15 28 13
34 -3 7 -7 4 -11 -7z"/>
<path d="M12833 17820 c0 -36 2 -50 4 -32 2 17 2 47 0 65 -2 17 -4 3 -4 -33z"/>
<path d="M13231 17790 c0 -8 4 -24 9 -35 5 -13 9 -14 9 -5 0 8 -4 24 -9 35 -5
13 -9 14 -9 5z"/>
<path d="M14353 17725 c0 -38 2 -53 4 -32 2 20 2 52 0 70 -2 17 -4 1 -4 -38z"/>
<path d="M13257 17700 c6 -38 31 -111 32 -95 0 6 -8 37 -19 70 -11 33 -17 44
-13 25z"/>
<path d="M13292 17580 c0 -8 6 -31 13 -50 7 -19 13 -28 13 -20 0 8 -6 31 -13
50 -7 19 -13 28 -13 20z"/>
<path d="M12843 17495 c0 -27 2 -38 4 -22 2 15 2 37 0 50 -2 12 -4 0 -4 -28z"/>
<path d="M14362 17490 c0 -14 2 -19 5 -12 2 6 2 18 0 25 -3 6 -5 1 -5 -13z"/>
<path d="M13321 17480 c0 -14 28 -72 29 -59 0 4 -7 22 -15 40 -8 19 -14 27
-14 19z"/>
<path d="M14150 17413 c0 -5 10 -18 23 -29 l22 -19 -20 25 c-11 14 -21 27 -22
29 -2 2 -3 0 -3 -6z"/>
<path d="M27711 19424 c0 -11 3 -14 6 -6 3 7 2 16 -1 19 -3 4 -6 -2 -5 -13z"/>
<path d="M34070 19328 c-83 -39 -287 -115 -333 -123 -34 -7 -36 -10 -67 -98
-135 -394 -376 -660 -737 -816 -174 -75 -593 -106 -1202 -89 -178 5 -326 7
-328 4 -6 -6 -15 -48 -83 -381 -47 -229 -138 -670 -200 -970 -72 -349 -173
-841 -197 -958 -14 -70 -23 -130 -20 -134 7 -6 351 47 367 57 6 3 77 332 159
731 82 398 157 760 166 804 9 44 39 185 65 313 26 128 50 235 52 237 2 2 102
-1 223 -7 168 -7 663 -6 785 3 41 3 219 20 245 24 17 2 57 7 90 10 162 18 411
150 579 306 202 188 314 412 435 867 28 103 55 202 60 220 5 17 9 32 8 31 -1
0 -31 -14 -67 -31z"/>
<path d="M27785 19300 c21 -22 41 -40 44 -40 3 0 -13 18 -34 40 -21 22 -41 40
-44 40 -3 0 13 -18 34 -40z"/>
<path d="M47035 19304 c-11 -2 -45 -9 -75 -15 -358 -70 -788 -318 -1258 -727
-173 -150 -178 -153 -193 -147 -8 3 -27 24 -43 47 -184 259 -522 438 -827 438
-287 0 -700 -176 -1089 -465 l-86 -64 -120 -20 c-67 -12 -123 -21 -126 -21 -3
0 11 79 30 175 19 97 33 177 31 180 -6 6 -1473 -235 -1480 -243 -3 -4 -50
-227 -105 -496 l-99 -488 -11 58 c-24 133 -66 219 -143 294 -52 50 -173 121
-186 108 -3 -2 1 -20 7 -39 9 -22 13 -87 12 -184 0 -133 -3 -160 -27 -238 -93
-303 -312 -549 -572 -641 -64 -22 -108 -33 -222 -53 l-41 -8 22 -71 c59 -186
176 -248 394 -210 229 40 418 159 566 356 26 36 59 87 73 113 13 27 26 47 28
45 1 -1 -176 -874 -394 -1938 -219 -1064 -396 -1937 -394 -1939 1 -2 81 9 177
25 97 15 179 25 182 21 4 -4 -8 -84 -28 -177 -34 -168 -34 -170 -14 -170 39 1
1456 236 1463 243 4 4 206 975 449 2157 l442 2150 33 27 c208 179 441 286 651
300 l86 6 14 -44 c9 -30 13 -98 12 -209 l-1 -165 -382 -1859 c-210 -1022 -380
-1861 -378 -1863 3 -2 85 9 183 25 99 16 180 29 181 27 2 -1 -13 -80 -32 -175
-19 -95 -33 -175 -31 -177 4 -4 1489 236 1492 240 7 9 766 3764 775 3832 15
113 6 289 -21 409 -23 103 -34 82 95 170 159 108 353 182 510 193 97 7 100 5
116 -98 23 -149 9 -262 -100 -794 -55 -269 -150 -734 -211 -1032 -152 -749
-151 -741 -157 -988 -9 -368 41 -583 180 -772 48 -64 128 -134 185 -161 22
-11 51 -44 88 -99 30 -45 78 -103 107 -128 60 -53 186 -118 272 -140 237 -61
621 -21 863 91 272 125 479 379 643 789 38 96 49 116 56 100 4 -11 8 -110 8
-220 0 -222 -14 -318 -80 -543 -148 -507 -511 -1123 -990 -1677 -33 -38 -74
-86 -90 -105 -65 -75 -158 -173 -343 -360 -904 -916 -2135 -1776 -3607 -2520
-2539 -1283 -5677 -2164 -9275 -2605 -2031 -248 -4281 -357 -6520 -315 -1018
19 -1728 49 -2880 120 -3589 222 -6016 310 -8585 310 -1313 0 -2028 -13 -3030
-55 -6064 -255 -9733 -1360 -11223 -3380 -373 -506 -611 -1094 -702 -1733 -11
-75 -20 -141 -20 -147 0 -5 31 49 68 120 153 292 334 542 594 817 73 78 249
240 255 235 2 -3 -13 -33 -33 -68 -223 -394 -377 -838 -449 -1296 -37 -234
-35 -239 36 -103 911 1731 3238 2642 7274 2850 1338 68 3084 56 4980 -35 1555
-75 2677 -153 6510 -450 2752 -213 4364 -314 5850 -365 498 -18 1841 -24 2375
-11 1090 26 1976 76 2965 167 4857 447 9239 1765 12630 3799 2206 1323 3866
2882 4693 4410 537 991 654 1921 326 2591 -110 224 -307 460 -500 599 -23 16
-52 45 -65 65 -62 90 -275 292 -419 394 -8 6 10 -17 40 -51 64 -71 112 -148
145 -230 37 -92 36 -95 -15 -110 -108 -32 -315 -55 -332 -37 -4 3 7 34 22 68
23 51 110 289 110 301 0 2 -22 -5 -49 -16 -52 -19 -233 -59 -271 -59 -22 0
-23 3 -17 58 9 86 103 556 222 1108 279 1290 279 1291 279 1509 0 139 -3 173
-26 265 -65 258 -215 490 -412 636 -32 24 -72 63 -89 86 -53 75 -183 196 -276
257 -167 109 -325 160 -516 166 -66 2 -129 2 -140 -1z m-930 -951 c-16 -14
-77 -67 -134 -117 -57 -50 -116 -101 -131 -113 l-27 -22 -31 45 c-18 24 -32
48 -32 53 0 11 121 83 187 112 44 20 181 68 193 68 3 0 -8 -11 -25 -26z
m-2502 -411 c-11 -9 -44 -37 -72 -60 -52 -45 -57 -43 -45 17 6 28 13 33 68 50
67 21 82 19 49 -7z m-7962 -11445 c-6 -73 -22 -330 -37 -572 l-27 -440 62
-269 c34 -148 58 -272 54 -276 -10 -9 -252 -65 -256 -59 -2 2 -32 125 -66 274
l-62 270 -284 502 c-157 276 -285 506 -285 512 0 8 192 57 250 63 22 3 37 -22
198 -329 96 -183 178 -333 182 -333 4 0 7 42 6 93 0 50 4 221 8 379 l8 287
117 26 c64 14 121 28 126 29 16 5 17 -19 6 -157z m-18907 -17 c220 -24 296
-43 373 -95 42 -28 58 -48 84 -102 29 -59 34 -81 37 -163 5 -117 -22 -380 -48
-464 -21 -66 -69 -141 -112 -176 -15 -11 -49 -31 -75 -43 -43 -20 -64 -22
-198 -22 l-149 0 -32 -303 c-18 -167 -35 -306 -37 -308 -6 -6 -255 21 -263 28
-5 6 160 1601 171 1654 3 16 11 20 27 18 13 -2 112 -13 222 -24z m1421 -155
c208 -24 256 -34 331 -73 130 -67 167 -209 130 -492 -22 -163 -68 -257 -151
-305 l-44 -26 40 -36 c86 -77 99 -163 69 -449 -13 -122 -20 -246 -18 -285 4
-47 2 -69 -6 -69 -43 1 -259 29 -264 35 -11 11 -5 180 12 320 29 241 20 317
-44 350 -25 13 -160 39 -167 32 -1 -2 -18 -153 -38 -337 -20 -184 -38 -336
-40 -338 -5 -5 -255 24 -262 31 -6 6 163 1622 173 1655 5 17 39 15 279 -13z
m16141 -95 c17 -106 18 -121 4 -125 -8 -2 -68 -14 -132 -26 -76 -14 -118 -26
-118 -34 0 -7 56 -317 125 -691 69 -373 125 -686 125 -695 0 -14 -24 -22 -127
-42 -71 -13 -131 -22 -134 -18 -4 3 -20 83 -37 176 -17 94 -43 233 -57 310
-75 402 -146 795 -150 830 -10 79 -16 96 -33 91 -37 -10 -253 -48 -257 -45 -7
8 -45 233 -39 238 6 6 754 148 790 150 19 1 22 -10 40 -119z m-14631 -65 c182
-19 338 -35 349 -35 17 0 18 -5 12 -67 -4 -38 -10 -93 -13 -123 -2 -30 -6 -56
-8 -58 -2 -2 -104 7 -227 21 -122 13 -224 23 -225 22 -1 0 -7 -48 -13 -105
-16 -151 -19 -186 -29 -270 -4 -41 -8 -76 -7 -77 1 -1 73 -9 161 -18 203 -20
207 -21 201 -43 -3 -9 -8 -48 -11 -87 -10 -128 -13 -135 -43 -135 -15 0 -94 7
-175 16 -82 9 -150 14 -152 12 -5 -5 -11 -45 -20 -133 -8 -74 -13 -118 -19
-170 -3 -22 -8 -70 -11 -106 l-6 -66 168 -17 c92 -9 194 -20 226 -23 56 -6 57
-6 57 -37 0 -36 -20 -209 -25 -214 -3 -4 -718 69 -723 73 -2 2 36 372 83 824
47 452 85 829 85 837 0 18 -15 19 365 -21z m13249 -97 c3 -24 58 -396 121
-827 64 -431 112 -787 108 -791 -11 -10 -252 -45 -259 -38 -4 5 -235 1538
-246 1633 l-3 30 100 16 c55 9 117 17 137 18 36 1 37 0 42 -41z m-11907 -41
c6 -6 81 -1017 83 -1117 1 -52 13 -22 43 105 14 61 74 307 133 548 l106 439
32 -6 c17 -2 97 -10 178 -17 81 -7 152 -15 158 -19 7 -4 -12 -255 -66 -836
-42 -456 -79 -832 -83 -835 -3 -4 -62 -1 -131 5 l-125 11 2 30 c8 110 25 301
33 360 6 39 21 196 35 350 14 154 27 295 29 313 3 17 1 32 -5 32 -5 0 -9 -8
-9 -19 0 -25 -250 -1035 -258 -1042 -8 -7 -248 13 -255 21 -3 3 -12 120 -22
260 -35 540 -55 814 -60 818 -3 3 -5 1 -5 -4 -1 -32 -99 -1056 -101 -1058 -2
-1 -57 2 -121 7 -95 8 -118 13 -118 25 0 29 151 1647 154 1657 4 12 360 -16
373 -28z m10637 -86 c4 -5 9 -40 12 -78 12 -136 152 -1334 157 -1339 2 -3 98
6 213 20 114 13 212 22 216 20 4 -3 8 -26 8 -52 1 -26 5 -78 10 -117 5 -38 8
-71 6 -72 -7 -8 -691 -82 -697 -76 -6 7 -186 1544 -192 1638 l-2 30 125 16
c69 9 128 17 132 18 4 1 9 -3 12 -8z m-9036 -48 c23 -3 42 -10 42 -17 -1 -47
-130 -1660 -134 -1663 -5 -5 -267 14 -271 20 -2 1 26 364 61 807 35 443 63
820 64 839 l0 33 98 -6 c53 -4 116 -9 140 -13z m931 -68 c2 -2 -15 -307 -39
-678 -38 -614 -40 -677 -27 -709 18 -42 49 -66 92 -68 117 -8 150 32 160 195
2 22 6 90 9 150 4 61 9 130 11 155 2 25 7 95 10 155 3 61 8 137 10 170 2 33 7
112 11 175 3 63 8 133 9 155 1 22 6 94 10 160 4 66 9 121 10 123 2 2 60 0 129
-4 l126 -7 0 -41 c0 -22 -18 -324 -40 -671 -26 -419 -45 -650 -55 -689 -55
-209 -221 -311 -446 -277 -189 29 -300 136 -329 313 -10 65 -9 97 26 608 3 47
7 110 9 140 2 30 6 105 10 165 4 61 8 128 10 150 1 22 6 99 10 170 7 118 10
161 14 175 1 6 263 -9 270 -15z m7024 -75 c9 -47 98 -418 196 -825 119 -497
174 -742 167 -746 -6 -4 -68 -10 -137 -14 -102 -6 -127 -5 -131 6 -3 8 -18 74
-34 148 l-29 133 -120 -6 c-66 -4 -137 -10 -157 -13 l-37 -5 -5 -62 c-3 -33
-9 -101 -13 -151 l-8 -90 -118 -9 c-64 -5 -120 -6 -124 -3 -7 8 127 1679 136
1689 6 7 337 37 376 34 17 -1 23 -15 38 -86z m-5528 -3 c1 -1 32 -252 69 -557
37 -305 70 -564 73 -575 3 -11 55 237 114 550 60 314 108 570 109 570 33 0
202 -7 275 -11 l100 -6 -31 -839 c-18 -462 -33 -841 -35 -842 -2 -1 -62 -1
-132 1 l-128 3 6 72 c3 40 7 144 10 232 2 88 9 286 16 440 6 154 9 296 7 315
-2 20 -43 -176 -97 -465 -52 -275 -99 -520 -104 -543 l-9 -44 -127 7 c-69 4
-127 8 -128 9 -2 2 -50 368 -78 596 -50 406 -60 479 -66 472 -3 -4 -14 -244
-24 -534 l-19 -528 -105 0 c-58 0 -113 4 -121 9 -12 8 -11 108 13 773 15 420
30 796 34 837 l6 74 186 -7 c102 -4 186 -8 186 -9z m4303 -67 c1 -41 13 -343
27 -671 26 -646 26 -676 -22 -782 -59 -132 -221 -209 -405 -193 -187 17 -308
130 -338 316 -14 92 -64 1360 -54 1370 5 5 68 10 139 11 l130 2 3 -114 c1 -63
13 -366 26 -674 24 -589 25 -595 72 -636 41 -36 143 -29 176 11 38 46 38 75
13 679 -13 322 -25 622 -26 666 l-2 80 104 6 c169 9 154 16 157 -71z m-1603
23 c91 -29 154 -81 195 -160 48 -93 50 -118 56 -668 6 -470 5 -526 -11 -585
-28 -108 -27 -113 25 -126 42 -10 45 -13 44 -42 0 -18 -1 -71 -2 -118 l-2 -87
-67 5 c-78 6 -138 32 -176 78 l-26 30 -57 -15 c-112 -29 -250 -15 -347 35 -90
46 -155 140 -176 256 -5 27 -11 290 -13 584 -3 533 -3 535 19 593 40 105 90
158 189 204 98 45 239 51 349 16z"/>
<path d="M16730 6208 c-1 -13 -14 -138 -29 -278 -15 -140 -27 -256 -27 -257 1
-1 42 -5 91 -9 83 -6 92 -4 117 15 34 27 43 60 62 233 32 276 23 293 -156 312
-55 6 -58 5 -58 -16z"/>
<path d="M18120 6067 c0 -8 -11 -119 -25 -247 -15 -132 -22 -237 -17 -242 5
-5 44 -9 88 -11 92 -2 121 11 147 66 20 42 48 276 40 335 -8 59 -45 89 -120
97 -32 3 -70 9 -85 11 -20 4 -28 2 -28 -9z"/>
<path d="M30350 5433 c0 -16 -11 -179 -25 -363 -14 -184 -25 -350 -25 -368 l0
-34 68 7 c37 3 90 8 119 11 l51 5 -9 32 c-22 82 -159 698 -159 717 0 11 -4 20
-10 20 -5 0 -10 -12 -10 -27z"/>
<path d="M27535 5473 c-28 -7 -61 -40 -75 -72 -8 -20 -10 -176 -8 -542 3 -461
5 -517 20 -545 27 -50 62 -67 126 -62 63 6 94 31 111 95 14 50 2 994 -13 1047
-6 22 -23 47 -36 57 -27 20 -92 31 -125 22z"/>
<path d="M28122 18840 c0 -14 2 -19 5 -12 2 6 2 18 0 25 -3 6 -5 1 -5 -13z"/>
<path d="M28114 18795 c-3 -8 -4 -20 -2 -27 3 -7 7 -1 10 15 6 29 1 36 -8 12z"/>
<path d="M28102 18710 c0 -14 2 -19 5 -12 2 6 2 18 0 25 -3 6 -5 1 -5 -13z"/>
<path d="M28096 18655 c-3 -9 -6 -24 -5 -33 0 -9 5 -4 10 12 9 32 6 48 -5 21z"/>
<path d="M28086 18565 c-3 -9 -6 -26 -5 -38 1 -14 4 -9 9 13 9 37 7 52 -4 25z"/>
<path d="M28073 18415 c0 -22 2 -30 4 -17 2 12 2 30 0 40 -3 9 -5 -1 -4 -23z"/>
<path d="M28063 18245 c0 -33 2 -45 4 -27 2 18 2 45 0 60 -2 15 -4 0 -4 -33z"/>
<path d="M29830 18142 c-437 -126 -747 -384 -939 -783 -163 -338 -248 -780
-267 -1389 -10 -333 19 -552 94 -712 38 -82 54 -118 49 -118 -1 0 -51 -7 -112
-15 -200 -27 -418 -15 -544 30 -24 8 -46 13 -48 11 -8 -7 34 -81 76 -133 115
-145 317 -223 582 -223 106 0 285 15 334 29 l25 6 -35 75 c-92 190 -109 298
-108 660 1 392 28 675 93 975 31 143 111 380 170 503 139 291 365 529 620 655
l65 32 43 205 c23 113 42 208 42 213 0 13 -43 6 -140 -21z"/>
<path d="M23747 18149 c-79 -9 -128 -43 -162 -114 l-28 -56 5 -389 c2 -215 3
-390 2 -390 -1 0 -18 7 -39 16 -30 12 -77 15 -235 14 l-197 -1 -7 363 c-8 400
-12 431 -69 486 -68 66 -163 80 -254 38 -34 -16 -60 -37 -77 -63 -41 -63 -49
-113 -42 -273 3 -80 8 -284 12 -455 3 -170 10 -325 14 -344 13 -50 50 -97 95
-123 40 -23 42 -23 385 -22 372 1 377 1 438 57 l22 21 33 -31 c49 -46 76 -57
148 -57 89 0 151 36 188 109 23 45 26 62 28 179 2 113 5 133 22 149 10 11 24
16 30 12 7 -3 63 -84 126 -178 62 -95 129 -186 147 -204 66 -64 175 -81 263
-39 83 39 115 93 111 186 -4 79 -27 123 -174 328 -73 101 -132 187 -132 191 0
5 -7 14 -15 21 -14 11 1 30 108 139 139 140 153 167 144 259 -12 111 -94 182
-211 182 -94 0 -127 -22 -278 -186 -73 -79 -135 -144 -139 -144 -4 0 -10 37
-14 82 -10 121 -40 179 -109 215 -47 25 -77 29 -139 22z m770 -85 c44 -33 61
-89 44 -146 -10 -34 -41 -71 -145 -176 -72 -73 -132 -136 -134 -141 -2 -5 3
-15 11 -22 7 -8 31 -39 53 -70 21 -31 86 -121 143 -200 123 -170 156 -234 148
-290 -7 -53 -30 -86 -73 -104 -49 -20 -100 -19 -151 5 -34 15 -53 35 -89 92
-26 40 -71 109 -101 153 -30 44 -76 112 -101 152 -26 40 -52 72 -57 72 -6 1
-36 -25 -68 -57 l-57 -58 -3 -140 c-2 -118 -5 -144 -22 -173 -40 -67 -122 -88
-195 -51 -74 38 -73 28 -83 560 -6 337 -5 486 3 512 37 128 204 143 267 25 13
-25 18 -68 21 -194 2 -90 7 -163 11 -162 3 1 37 35 75 78 202 222 329 349 359
359 45 15 106 5 144 -24z m-1581 -10 c21 -10 40 -31 53 -57 19 -39 21 -71 27
-441 l7 -399 213 7 c184 6 218 4 253 -10 67 -27 99 -89 80 -157 -12 -46 -42
-74 -89 -87 -19 -5 -172 -10 -340 -11 -350 -3 -357 -2 -391 76 -18 40 -20 79
-25 512 -7 521 -7 523 59 563 39 24 106 26 153 4z"/>
<path d="M24369 17993 c-13 -16 -12 -17 4 -4 16 13 21 21 13 21 -2 0 -10 -8
-17 -17z"/>
<path d="M23719 17983 c-13 -16 -12 -17 4 -4 16 13 21 21 13 21 -2 0 -10 -8
-17 -17z"/>
<path d="M24300 17926 l-44 -51 49 47 c27 26 47 49 45 51 -3 2 -25 -20 -50
-47z"/>
<path d="M24492 17960 c0 -14 2 -19 5 -12 2 6 2 18 0 25 -3 6 -5 1 -5 -13z"/>
<path d="M23848 17752 c2 -118 6 -221 10 -228 4 -7 6 85 4 204 -2 118 -6 221
-10 228 -4 7 -6 -85 -4 -204z"/>
<path d="M23702 17770 c-1 -107 1 -320 5 -473 6 -254 8 -281 25 -300 l19 -22
-15 25 c-12 21 -16 106 -24 495 -5 267 -9 386 -10 275z"/>
<path d="M24325 17768 l-100 -103 103 100 c56 55 102 101 102 102 0 8 -12 -4
-105 -99z"/>
<path d="M24169 17783 l-34 -38 38 34 c34 33 42 41 34 41 -2 0 -19 -17 -38
-37z"/>
<path d="M24035 17638 l-40 -43 43 40 c39 36 47 45 39 45 -2 0 -21 -19 -42
-42z"/>
<path d="M23919 17513 c-13 -16 -12 -17 4 -4 9 7 17 15 17 17 0 8 -8 3 -21
-13z"/>
<path d="M24230 17526 c0 -2 8 -10 18 -17 15 -13 16 -12 3 4 -13 16 -21 21
-21 13z"/>
<path d="M24170 17371 c5 -11 15 -23 21 -27 6 -3 3 5 -6 20 -20 30 -30 35 -15
7z"/>
<path d="M24360 17346 c0 -2 8 -10 18 -17 15 -13 16 -12 3 4 -13 16 -21 21
-21 13z"/>
<path d="M23864 17165 c0 -82 2 -115 3 -72 2 43 2 110 0 150 -1 40 -3 5 -3
-78z"/>
<path d="M24220 17296 c0 -2 8 -10 18 -17 15 -13 16 -12 3 4 -13 16 -21 21
-21 13z"/>
<path d="M24410 17276 c0 -2 8 -10 18 -17 15 -13 16 -12 3 4 -13 16 -21 21
-21 13z"/>
<path d="M24287 17199 c10 -17 24 -36 32 -42 8 -7 2 7 -14 31 -32 49 -45 57
-18 11z"/>
<path d="M24460 17206 c0 -2 8 -10 18 -17 15 -13 16 -12 3 4 -13 16 -21 21
-21 13z"/>
<path d="M24530 17110 c6 -11 13 -20 16 -20 2 0 0 9 -6 20 -6 11 -13 20 -16
20 -2 0 0 -9 6 -20z"/>
<path d="M24360 17090 c6 -11 13 -20 16 -20 2 0 0 9 -6 20 -6 11 -13 20 -16
20 -2 0 0 -9 6 -20z"/>
<path d="M24561 17040 c0 -15 -4 -30 -8 -36 -5 -5 -2 -4 5 2 8 6 12 22 9 35
-4 24 -4 24 -6 -1z"/>
<path d="M24415 17010 c10 -11 20 -20 23 -20 3 0 -3 9 -13 20 -10 11 -20 20
-23 20 -3 0 3 -9 13 -20z"/>
<path d="M23839 16993 c-13 -16 -12 -17 4 -4 16 13 21 21 13 21 -2 0 -10 -8
-17 -17z"/>
<path d="M22799 17963 c-10 -11 -14 -47 -15 -112 l-2 -96 7 96 c3 58 11 102
20 112 7 10 11 17 8 17 -2 0 -11 -7 -18 -17z"/>
<path d="M22938 17638 c1 -167 4 -330 5 -363 2 -33 4 93 4 280 1 187 -2 350
-5 363 -4 13 -6 -113 -4 -280z"/>
<path d="M22794 17415 c0 -187 2 -262 3 -167 2 95 2 248 0 340 -1 92 -3 14 -3
-173z"/>
<path d="M22951 17153 c0 -34 2 -64 7 -66 4 -3 6 16 4 41 -5 80 -9 90 -11 25z"/>
<path d="M22802 17045 c0 -16 2 -22 5 -12 2 9 2 23 0 30 -3 6 -5 -1 -5 -18z"/>
<path d="M23497 17039 c4 -13 8 -18 11 -10 2 7 -1 18 -6 23 -8 8 -9 4 -5 -13z"/>
<path d="M22329 18121 c-22 -7 -56 -29 -76 -49 -68 -67 -66 -52 -58 -600 3
-271 10 -506 15 -523 15 -51 59 -100 114 -125 113 -53 230 -12 288 101 20 38
21 55 19 385 -1 411 -9 632 -23 680 -33 110 -161 171 -279 131z m141 -73 c83
-43 82 -34 89 -561 4 -255 3 -480 -1 -502 -33 -148 -239 -154 -277 -7 -15 59
-26 952 -12 994 14 41 44 71 86 86 46 16 67 14 115 -10z"/>
<path d="M22349 17963 c-13 -16 -12 -17 4 -4 16 13 21 21 13 21 -2 0 -10 -8
-17 -17z"/>
<path d="M22466 17950 c5 -8 12 -141 15 -295 l5 -280 0 282 c-1 228 -4 285
-15 295 -12 11 -12 10 -5 -2z"/>
<path d="M22335 17595 c0 -192 1 -270 2 -172 2 98 2 256 0 350 -1 95 -3 15 -2
-178z"/>
<path d="M22494 17190 c0 -102 2 -143 3 -92 2 50 2 134 0 185 -1 50 -3 9 -3
-93z"/>
<path d="M22342 17124 c-2 -104 1 -125 16 -141 9 -10 13 -12 7 -4 -5 7 -13 71
-16 140 l-5 126 -2 -121z"/>
<path d="M22471 16977 c-13 -21 -12 -21 5 -5 10 10 16 20 13 22 -3 3 -11 -5
-18 -17z"/>
<path d="M21769 18102 c-103 -30 -137 -78 -185 -259 -18 -69 -35 -128 -38
-130 -2 -2 -12 22 -21 54 -70 248 -83 274 -157 308 -43 20 -66 24 -154 23 -56
0 -121 -4 -143 -10 -52 -13 -126 -78 -141 -124 -16 -47 -5 -991 12 -1044 6
-19 19 -47 29 -62 25 -34 113 -78 159 -78 82 0 158 42 187 102 10 21 20 38 23
38 3 -1 14 -15 25 -32 11 -18 39 -46 63 -62 54 -38 149 -48 217 -21 50 19 109
71 120 105 7 21 9 20 32 -19 88 -148 337 -118 380 46 13 51 -3 976 -17 1029
-18 64 -81 119 -154 134 -51 10 -203 12 -237 2z m265 -82 c16 -8 38 -32 49
-53 18 -34 19 -69 26 -491 3 -250 3 -474 -1 -498 -9 -52 -59 -104 -112 -113
-43 -9 -100 17 -130 58 -21 28 -25 86 -35 435 -1 33 -21 47 -21 15 0 -10 -22
-107 -49 -216 -55 -220 -77 -268 -138 -288 -47 -15 -128 -6 -161 18 -49 37
-59 63 -162 451 -23 90 -31 44 -28 -170 3 -189 1 -217 -15 -245 -52 -96 -190
-95 -236 1 -19 38 -20 73 -27 516 -6 418 -5 479 9 512 24 56 62 72 192 76 127
4 166 -10 196 -69 10 -19 48 -143 86 -276 37 -134 70 -243 74 -243 3 0 36 117
72 260 39 154 74 272 86 289 11 15 35 33 53 39 48 16 236 10 272 -8z"/>
<path d="M21762 17937 c-6 -6 -13 -26 -16 -42 l-6 -30 11 30 c7 17 16 36 22
43 12 16 3 16 -11 -1z"/>
<path d="M22007 17940 c6 -8 16 -31 22 -50 l11 -35 -5 35 c-3 19 -13 42 -22
50 -15 13 -15 13 -6 0z"/>
<path d="M21063 17915 c-3 -9 -3 -18 -1 -21 3 -3 8 4 11 16 6 23 -1 27 -10 5z"/>
<path d="M21332 17905 c0 -5 6 -26 13 -45 7 -19 14 -28 14 -20 0 8 -6 29 -14
45 -7 17 -13 26 -13 20z"/>
<path d="M21056 17728 c2 -84 6 -286 8 -449 3 -206 7 -303 16 -315 11 -18 11
-18 5 1 -4 11 -10 219 -14 462 -3 243 -9 444 -12 448 -4 3 -5 -63 -3 -147z"/>
<path d="M21731 17844 c0 -11 3 -14 6 -6 3 7 2 16 -1 19 -3 4 -6 -2 -5 -13z"/>
<path d="M22033 17418 c1 -240 6 -433 10 -429 4 4 3 201 -2 437 l-9 429 1
-437z"/>
<path d="M21361 17804 c0 -11 3 -14 6 -6 3 7 2 16 -1 19 -3 4 -6 -2 -5 -13z"/>
<path d="M21721 17804 c0 -11 3 -14 6 -6 3 7 2 16 -1 19 -3 4 -6 -2 -5 -13z"/>
<path d="M21892 17737 c3 -39 7 -216 8 -392 1 -176 5 -331 9 -345 4 -14 6 31
4 100 -1 69 -4 252 -6 408 -2 165 -7 286 -13 292 -6 6 -7 -16 -2 -63z"/>
<path d="M21198 17380 c2 -217 6 -397 8 -399 6 -7 2 382 -6 599 -4 121 -5 46
-2 -200z"/>
<path d="M21711 17764 c0 -11 3 -14 6 -6 3 7 2 16 -1 19 -3 4 -6 -2 -5 -13z"/>
<path d="M21261 17754 c0 -11 3 -14 6 -6 3 7 2 16 -1 19 -3 4 -6 -2 -5 -13z"/>
<path d="M21821 17744 c0 -11 3 -14 6 -6 3 7 2 16 -1 19 -3 4 -6 -2 -5 -13z"/>
<path d="M21381 17740 c0 -8 4 -24 9 -35 5 -13 9 -14 9 -5 0 8 -4 24 -9 35 -5
13 -9 14 -9 5z"/>
<path d="M21701 17724 c0 -11 3 -14 6 -6 3 7 2 16 -1 19 -3 4 -6 -2 -5 -13z"/>
<path d="M21277 17700 c3 -19 12 -53 19 -75 13 -38 13 -38 7 -5 -3 19 -12 53
-19 75 -13 38 -13 38 -7 5z"/>
<path d="M21796 17644 c-10 -41 -16 -77 -14 -80 3 -2 12 30 22 72 10 41 16 77
14 80 -3 2 -12 -30 -22 -72z"/>
<path d="M21691 17684 c0 -11 3 -14 6 -6 3 7 2 16 -1 19 -3 4 -6 -2 -5 -13z"/>
<path d="M21400 17666 c0 -8 4 -17 9 -20 5 -4 7 3 4 14 -6 23 -13 26 -13 6z"/>
<path d="M21681 17644 c0 -11 3 -14 6 -6 3 7 2 16 -1 19 -3 4 -6 -2 -5 -13z"/>
<path d="M21665 17590 c-4 -17 -5 -34 -2 -36 2 -3 7 10 11 27 8 42 0 50 -9 9z"/>
<path d="M21421 17594 c0 -11 3 -14 6 -6 3 7 2 16 -1 19 -3 4 -6 -2 -5 -13z"/>
<path d="M21316 17550 c4 -19 11 -44 15 -55 6 -14 7 -9 3 15 -4 19 -11 44 -15
55 -6 14 -7 9 -3 -15z"/>
<path d="M21431 17560 c0 -8 4 -24 9 -35 5 -13 9 -14 9 -5 0 8 -4 24 -9 35 -5
13 -9 14 -9 5z"/>
<path d="M21771 17534 c0 -11 3 -14 6 -6 3 7 2 16 -1 19 -3 4 -6 -2 -5 -13z"/>
<path d="M21651 17524 c0 -11 3 -14 6 -6 3 7 2 16 -1 19 -3 4 -6 -2 -5 -13z"/>
<path d="M21752 17458 c-7 -28 -11 -53 -8 -55 2 -2 9 19 16 47 7 28 10 53 8
55 -3 3 -10 -18 -16 -47z"/>
<path d="M21641 17484 c0 -11 3 -14 6 -6 3 7 2 16 -1 19 -3 4 -6 -2 -5 -13z"/>
<path d="M21451 17485 c1 -19 18 -51 18 -35 0 8 -4 22 -9 30 -5 8 -9 11 -9 5z"/>
<path d="M21341 17454 c0 -11 3 -14 6 -6 3 7 2 16 -1 19 -3 4 -6 -2 -5 -13z"/>
<path d="M21631 17444 c0 -11 3 -14 6 -6 3 7 2 16 -1 19 -3 4 -6 -2 -5 -13z"/>
<path d="M21356 17400 c4 -19 11 -44 15 -55 6 -14 7 -9 3 15 -4 19 -11 44 -15
55 -6 14 -7 9 -3 -15z"/>
<path d="M21471 17420 c0 -8 4 -24 9 -35 5 -13 9 -14 9 -5 0 8 -4 24 -9 35 -5
13 -9 14 -9 5z"/>
<path d="M21621 17404 c0 -11 3 -14 6 -6 3 7 2 16 -1 19 -3 4 -6 -2 -5 -13z"/>
<path d="M21611 17364 c0 -11 3 -14 6 -6 3 7 2 16 -1 19 -3 4 -6 -2 -5 -13z"/>
<path d="M21731 17364 c0 -11 3 -14 6 -6 3 7 2 16 -1 19 -3 4 -6 -2 -5 -13z"/>
<path d="M21490 17346 c0 -8 4 -17 9 -20 5 -4 7 3 4 14 -6 23 -13 26 -13 6z"/>
<path d="M21595 17310 c-4 -17 -5 -34 -2 -36 2 -3 7 10 11 27 8 42 0 50 -9 9z"/>
<path d="M21712 17288 c-7 -28 -11 -53 -8 -55 2 -2 9 19 16 47 7 28 10 53 8
55 -3 3 -10 -18 -16 -47z"/>
<path d="M21386 17290 c4 -19 11 -44 15 -55 6 -14 7 -9 3 15 -4 19 -11 44 -15
55 -6 14 -7 9 -3 -15z"/>
<path d="M21411 17194 c0 -11 3 -14 6 -6 3 7 2 16 -1 19 -3 4 -6 -2 -5 -13z"/>
<path d="M21691 17194 c0 -11 3 -14 6 -6 3 7 2 16 -1 19 -3 4 -6 -2 -5 -13z"/>
<path d="M21426 17140 c4 -19 11 -44 15 -55 6 -14 7 -9 3 15 -4 19 -11 44 -15
55 -6 14 -7 9 -3 -15z"/>
<path d="M21665 17092 c-10 -42 -20 -84 -22 -92 -4 -13 -3 -13 5 0 12 19 46
159 40 165 -2 3 -13 -30 -23 -73z"/>
<path d="M21451 17052 c-2 -22 25 -76 45 -92 18 -14 18 -14 2 6 -10 11 -24 38
-32 60 -8 21 -15 33 -15 26z"/>
<path d="M21619 16963 c-13 -16 -12 -17 4 -4 16 13 21 21 13 21 -2 0 -10 -8
-17 -17z"/>
<path d="M28063 17745 c0 -33 2 -45 4 -27 2 18 2 45 0 60 -2 15 -4 0 -4 -33z"/>
<path d="M39441 17714 c-40 -7 -76 -16 -80 -19 -11 -12 -38 -155 -29 -155 8 0
218 180 218 187 0 5 -31 2 -109 -13z"/>
<path d="M36123 17521 c-392 -65 -714 -119 -716 -122 -2 -2 -16 -62 -32 -134
-15 -71 -29 -132 -31 -133 -1 -2 -31 12 -66 31 -202 112 -432 142 -701 92
-839 -155 -1510 -653 -1967 -1460 -34 -60 -67 -113 -73 -117 -6 -3 -37 -9 -68
-13 -32 -4 -64 -12 -72 -18 -8 -7 -37 -104 -66 -216 -28 -113 -55 -207 -60
-210 -5 -4 -354 -62 -775 -131 -711 -115 -767 -126 -771 -145 -19 -88 -206
-989 -225 -1085 -5 -25 -30 -144 -55 -265 -25 -121 -52 -251 -60 -290 -7 -38
-34 -169 -60 -290 -25 -121 -59 -283 -75 -360 -28 -134 -77 -370 -196 -945
-30 -146 -62 -302 -71 -347 -15 -74 -19 -83 -42 -88 -14 -3 -262 -44 -551 -91
-288 -47 -527 -90 -530 -95 -11 -17 -73 -339 -67 -345 6 -6 1475 230 1481 237
2 2 173 825 380 1829 208 1004 379 1832 382 1840 3 12 101 31 426 84 713 116
737 120 743 114 4 -3 -10 -64 -29 -135 -133 -485 -209 -1031 -223 -1603 -8
-367 14 -547 92 -746 65 -164 198 -336 318 -412 26 -17 62 -52 80 -78 112
-169 286 -289 502 -345 80 -21 112 -24 295 -24 158 0 228 4 305 19 210 39 425
128 610 251 244 163 426 345 689 690 l23 29 39 -30 c21 -17 53 -39 69 -48 17
-10 40 -34 52 -55 38 -66 111 -148 175 -196 177 -133 381 -183 701 -172 185 6
322 25 420 58 101 34 259 115 384 199 111 74 338 249 331 255 -2 1 -41 -3 -87
-11 -47 -7 -85 -12 -86 -11 -1 1 51 259 116 572 64 314 115 572 113 574 -2 2
-21 -9 -42 -26 -194 -155 -352 -223 -552 -239 l-93 -7 6 89 c10 131 7 117 408
2078 204 994 368 1811 365 1814 -3 3 -85 -7 -181 -23 -97 -15 -178 -26 -180
-24 -2 3 12 78 31 168 19 89 34 167 34 172 0 5 -12 9 -27 8 -16 0 -349 -54
-740 -118z m-923 -1115 c0 -5 -454 -2228 -529 -2591 -27 -132 -54 -275 -60
-319 -10 -73 -16 -85 -83 -185 -173 -257 -353 -433 -507 -492 -71 -28 -294
-40 -324 -17 -44 34 -65 277 -48 576 46 813 249 1617 561 2220 272 525 593
809 918 811 39 1 72 -1 72 -3z m-551 -3566 l13 -50 -38 -43 c-73 -82 -217
-197 -247 -197 -5 0 13 26 40 57 26 32 53 63 58 70 6 7 15 18 21 25 5 7 19 28
29 46 11 17 23 32 27 32 4 0 8 4 8 10 0 12 62 100 70 100 3 0 12 -23 19 -50z"/>
<path d="M28073 17565 c0 -22 2 -30 4 -17 2 12 2 30 0 40 -3 9 -5 -1 -4 -23z"/>
<path d="M28083 17465 c0 -22 2 -30 4 -17 2 12 2 30 0 40 -3 9 -5 -1 -4 -23z"/>
<path d="M28060 17400 c-6 -11 -8 -20 -6 -20 3 0 10 9 16 20 6 11 8 20 6 20
-3 0 -10 -9 -16 -20z"/>
<path d="M39875 17350 c-132 -32 -170 -46 -198 -73 -20 -19 -33 -25 -40 -18
-14 14 -123 -57 -239 -156 -103 -89 -207 -200 -208 -221 0 -11 -123 -614 -276
-1357 -58 -283 -100 -488 -183 -895 -28 -135 -86 -420 -130 -635 -44 -214
-120 -587 -169 -828 -49 -241 -92 -440 -94 -442 -3 -3 -251 -45 -552 -94 -302
-50 -550 -91 -552 -93 -6 -7 -74 -351 -70 -355 5 -5 1476 234 1483 240 2 3
197 946 432 2097 l428 2092 84 85 c162 164 318 270 469 318 30 10 56 19 58 20
1 1 -7 47 -19 101 -25 115 -52 179 -85 201 -30 19 -88 25 -139 13z"/>
<path d="M27936 17163 c-6 -14 -5 -15 5 -6 7 7 10 15 7 18 -3 3 -9 -2 -12 -12z"/>
<path d="M27876 17025 c-9 -26 -7 -32 5 -12 6 10 9 21 6 23 -2 3 -7 -2 -11
-11z"/>
<path d="M27856 16975 c-9 -26 -7 -32 5 -12 6 10 9 21 6 23 -2 3 -7 -2 -11
-11z"/>
<path d="M27744 16791 c-129 -146 -234 -289 -346 -475 -43 -71 -77 -130 -76
-131 2 -2 17 0 35 2 28 5 38 15 74 82 72 131 186 295 304 436 28 33 59 85 71
117 12 32 21 58 20 58 -1 0 -38 -40 -82 -89z"/>
<path d="M27761 16674 c0 -11 3 -14 6 -6 3 7 2 16 -1 19 -3 4 -6 -2 -5 -13z"/>
<path d="M27725 16509 c-4 -6 -5 -12 -2 -15 2 -3 7 2 10 11 7 17 1 20 -8 4z"/>
<path d="M27714 16455 c-3 -8 -4 -20 -2 -27 3 -7 7 -1 10 15 6 29 1 36 -8 12z"/>
<path d="M27701 16374 c0 -11 3 -14 6 -6 3 7 2 16 -1 19 -3 4 -6 -2 -5 -13z"/>
<path d="M27691 16294 c0 -11 3 -14 6 -6 3 7 2 16 -1 19 -3 4 -6 -2 -5 -13z"/>
<path d="M16160 16046 c0 -2 8 -10 18 -17 15 -13 16 -12 3 4 -13 16 -21 21
-21 13z"/>
<path d="M16190 16006 c0 -2 8 -10 18 -17 15 -13 16 -12 3 4 -13 16 -21 21
-21 13z"/>
<path d="M16230 15950 c6 -11 13 -20 16 -20 2 0 0 9 -6 20 -6 11 -13 20 -16
20 -2 0 0 -9 6 -20z"/>
<path d="M16275 15883 c47 -123 70 -263 60 -363 -23 -230 -114 -425 -278 -597
-252 -263 -616 -371 -911 -268 -38 13 -72 23 -74 20 -10 -10 60 -108 122 -170
144 -144 345 -208 575 -185 368 39 701 313 827 682 73 216 53 466 -53 647 -45
77 -139 176 -207 220 -57 35 -71 39 -61 14z"/>
<path d="M25535 15369 c-93 -17 -171 -32 -174 -34 -3 -4 -414 -2017 -896
-4390 -245 -1208 -319 -1563 -350 -1680 -139 -528 -361 -943 -670 -1250 -285
-284 -621 -459 -1069 -557 -86 -19 -131 -22 -296 -22 -179 0 -203 3 -294 27
-55 15 -139 46 -188 70 -48 23 -88 39 -88 34 0 -20 74 -109 149 -179 298 -280
760 -334 1312 -154 424 138 793 425 1054 816 172 258 309 578 398 925 20 77
113 518 207 980 94 462 214 1049 266 1305 52 256 106 519 119 585 13 66 70
343 125 615 152 744 324 1593 465 2285 69 341 128 628 131 638 7 22 9 22 -201
-14z"/>
<path d="M22733 14911 c-89 -15 -165 -30 -169 -34 -4 -3 -159 -739 -345 -1634
-186 -895 -348 -1673 -360 -1728 -17 -74 -23 -134 -23 -230 -1 -117 1 -135 22
-177 32 -65 90 -112 161 -132 88 -25 107 -22 115 15 3 17 6 48 6 68 0 20 11
88 24 151 13 63 191 921 396 1905 204 985 373 1798 376 1808 7 22 0 22 -203
-12z"/>
<path d="M19970 14803 c-300 -24 -641 -177 -985 -443 -100 -77 -101 -77 -195
-93 -52 -9 -96 -15 -98 -13 -2 2 13 81 33 176 21 94 35 173 33 175 -3 4 -1453
-231 -1473 -239 -9 -3 -31 -95 -52 -216 -3 -17 -13 -70 -28 -142 -3 -13 -14
-66 -25 -118 -12 -52 -23 -108 -26 -125 -3 -16 -7 -40 -10 -52 -2 -13 -7 -34
-9 -48 -12 -56 -15 -74 -34 -160 -11 -49 -22 -106 -26 -125 -3 -19 -8 -45 -11
-57 -2 -13 -7 -34 -9 -48 -11 -53 -15 -74 -40 -190 -14 -66 -28 -133 -31 -150
-6 -35 -13 -72 -19 -100 -3 -11 -7 -31 -10 -45 -2 -14 -13 -65 -24 -115 -11
-49 -22 -106 -26 -125 -3 -19 -8 -44 -11 -55 -2 -11 -6 -33 -9 -50 -4 -16 -8
-39 -10 -50 -3 -11 -13 -60 -24 -110 -11 -49 -22 -106 -26 -125 -3 -19 -8 -44
-11 -55 -2 -11 -6 -33 -9 -50 -11 -58 -14 -74 -45 -215 -12 -52 -23 -108 -26
-125 -5 -29 -9 -51 -20 -105 -6 -27 -5 -26 -33 -155 -11 -49 -22 -106 -26
-125 -6 -34 -11 -59 -21 -110 -6 -27 -5 -26 -33 -155 -11 -49 -22 -106 -26
-125 -6 -34 -11 -59 -21 -110 -3 -14 -7 -36 -10 -50 -6 -32 -9 -45 -34 -160
-12 -52 -23 -108 -26 -125 -11 -62 -18 -93 -27 -115 -8 -18 -116 -541 -121
-585 -2 -16 -4 -39 -5 -51 -1 -15 -20 -31 -73 -58 -56 -29 -102 -66 -198 -160
-352 -344 -691 -582 -943 -661 -170 -54 -466 -79 -653 -55 -106 13 -241 48
-307 80 -22 11 -42 18 -45 16 -8 -9 77 -122 129 -173 69 -67 112 -96 215 -145
139 -65 235 -82 474 -82 299 -1 456 28 647 119 120 58 326 197 481 324 117 96
141 114 127 91 -9 -14 0 -13 187 17 93 14 171 23 174 20 4 -4 -9 -83 -28 -177
-35 -169 -36 -170 -14 -170 48 1 1457 237 1465 246 5 5 196 927 426 2049 229
1122 421 2061 426 2087 9 40 23 59 117 152 125 124 198 181 305 237 68 35 177
79 197 79 4 0 10 -14 14 -31 8 -44 53 -129 84 -162 35 -37 69 -55 138 -70 l56
-13 25 -77 c29 -88 81 -156 146 -188 57 -30 164 -35 268 -15 261 53 478 217
620 470 22 39 44 78 49 86 5 8 25 97 45 197 32 168 34 188 24 263 -24 192
-127 342 -286 414 -34 15 -47 29 -73 83 -92 186 -314 288 -580 266z m-986
-994 c-12 -13 -20 -16 -22 -9 -3 7 2 16 9 21 25 16 32 9 13 -12z"/>
<path d="M5915 14615 c-703 -95 -1350 -361 -1839 -755 -134 -109 -349 -322
-446 -445 -377 -477 -577 -1041 -597 -1680 -10 -321 17 -505 98 -677 23 -47
39 -90 35 -96 -11 -18 -233 -35 -390 -29 -140 5 -220 18 -310 53 -36 14 34
-96 109 -172 129 -131 288 -184 553 -184 168 0 332 17 339 36 3 7 -16 58 -41
112 -64 140 -85 253 -93 482 -22 692 190 1338 613 1870 78 98 364 385 393 395
19 6 29 31 38 95 3 19 8 38 11 41 4 4 57 21 117 39 61 18 126 43 145 55 307
201 712 372 1128 474 540 133 932 134 1190 2 l43 -22 -15 28 c-29 54 -106 143
-172 197 -104 86 -212 137 -364 172 -92 21 -416 27 -545 9z"/>
<path d="M8263 14368 c192 -278 319 -644 372 -1079 49 -401 35 -1006 -36
-1574 -149 -1196 -558 -2366 -1122 -3215 -481 -723 -1028 -1162 -1609 -1292
-137 -31 -435 -33 -566 -5 -191 42 -384 113 -515 189 -26 15 -50 28 -52 28 -2
0 -43 25 -90 55 -46 30 -88 55 -93 55 -4 0 -25 -91 -46 -202 -21 -112 -41
-206 -45 -210 -4 -5 -254 -49 -556 -98 -302 -50 -550 -92 -552 -93 -6 -7 -75
-349 -70 -353 4 -4 1478 233 1482 239 1 1 19 92 40 202 21 110 39 203 42 207
2 4 43 -18 91 -48 109 -70 322 -174 427 -209 164 -56 279 -76 460 -82 143 -4
189 -2 290 15 596 102 1179 562 1679 1325 313 477 599 1101 788 1716 29 93 54
169 56 167 1 -2 -4 -55 -12 -117 -47 -343 -75 -882 -58 -1088 19 -214 56 -361
130 -510 64 -130 164 -249 276 -326 30 -20 67 -58 84 -83 218 -337 679 -460
1216 -326 408 102 798 393 1140 851 l68 91 71 -48 c48 -33 82 -65 102 -97 96
-155 281 -280 487 -328 217 -50 604 -33 811 36 194 64 455 231 717 458 35 31
131 119 213 195 l149 139 -65 61 c-64 61 -124 142 -166 224 -18 36 -25 41 -37
31 -8 -6 -17 -9 -20 -6 -3 3 3 11 14 18 19 12 19 13 2 64 -26 76 -39 146 -49
263 -5 57 -12 106 -15 109 -3 3 -36 -17 -73 -44 -201 -145 -349 -202 -532
-203 l-64 0 6 88 c9 125 3 94 408 2076 204 994 368 1810 365 1813 -2 3 -85 -8
-183 -25 -98 -16 -180 -28 -182 -26 -3 2 12 82 31 177 20 94 35 173 34 175 -3
3 -1478 -237 -1482 -241 -2 -1 -16 -60 -32 -130 -16 -70 -32 -130 -35 -133 -2
-3 -33 11 -68 30 -141 77 -351 123 -513 112 -325 -22 -784 -178 -1116 -381
-592 -360 -1061 -989 -1351 -1810 -29 -83 -55 -154 -59 -158 -4 -4 1 42 11
102 116 719 136 1532 49 2031 -5 30 -12 73 -16 95 -20 132 -92 357 -169 526
-105 234 -312 503 -477 621 -26 18 -24 13 15 -44z m3506 -2085 c-26 -131 -158
-778 -293 -1438 -135 -660 -248 -1227 -252 -1260 -6 -53 -16 -74 -80 -170
-180 -272 -354 -436 -525 -496 -52 -19 -86 -23 -182 -23 -142 -1 -138 -4 -162
130 -15 80 -16 133 -11 337 7 286 5 239 22 417 23 231 62 463 129 770 23 105
92 351 133 475 315 948 751 1488 1208 1494 l61 1 -48 -237z m-502 -3346 c12
-40 11 -44 -16 -77 -38 -48 -169 -160 -220 -188 l-42 -24 76 98 c42 54 99 131
127 172 27 40 53 71 56 67 4 -3 12 -25 19 -48z"/>
<path d="M16095 13827 c-99 -16 -181 -31 -182 -31 -2 -2 -670 -3272 -689
-3376 -10 -55 -18 -146 -18 -215 0 -105 3 -127 23 -173 40 -90 115 -137 244
-155 l37 -6 0 61 c0 33 7 106 16 162 9 55 184 924 390 1929 206 1006 374 1831
374 1833 0 2 -3 3 -7 3 -5 -1 -89 -15 -188 -32z"/>
<path d="M6009 13763 l-185 -56 -574 -2776 c-315 -1527 -575 -2783 -577 -2792
-3 -11 18 -26 78 -53 83 -38 244 -84 255 -74 3 3 273 1301 600 2884 327 1584
597 2889 601 2902 3 12 1 22 -3 21 -5 0 -93 -26 -195 -56z"/>
<path d="M22925 10789 c-33 -21 -66 -39 -74 -39 -7 0 -74 -59 -149 -131 -412
-398 -783 -642 -1065 -700 -279 -57 -575 -46 -782 27 -118 43 -112 43 -84 -6
33 -61 163 -188 231 -229 158 -92 301 -124 558 -125 185 -1 207 3 242 37 12
12 140 98 183 123 11 6 72 41 135 78 118 69 466 246 647 329 61 28 104 53 107
64 7 24 126 593 126 604 0 15 -12 9 -75 -32z"/>
<path d="M22625 9642 c-355 -186 -598 -349 -795 -535 -56 -54 -79 -85 -106
-142 -73 -158 -100 -380 -57 -460 42 -79 154 -160 249 -180 l31 -6 6 69 c15
157 89 337 198 482 104 137 293 305 475 420 l71 45 32 165 c17 91 34 175 37
188 4 12 2 22 -2 22 -5 0 -67 -31 -139 -68z"/>
</g>
</svg>
